<?xml version="1.0" encoding="utf-8"?>
<svg id="master-artboard" viewBox="0 0 1400 980" version="1.1" xmlns="http://www.w3.org/2000/svg" x="0px" y="0px" style="enable-background:new 0 0 1400 980;" width="1400px" height="980px">

<path d="M 0 0 H 1400 V 980 H 0 V 0 Z" class="st0" style="fill: rgb(0, 189, 252);"/>
<g>
	<g>
		<path class="st1" d="M1077.1,449.6c0,6.6-5.3,11.9-11.9,11.9l0,0c-6.6,0-11.9-5.3-11.9-11.9V180.1c0-6.6,5.3-11.9,11.9-11.9l0,0&#10;&#9;&#9;&#9;c6.6,0,11.9,5.3,11.9,11.9V449.6z" style="fill: rgb(118, 75, 30);"/>
	</g>
	<g>
		<path class="st2" d="M1123.8,138.6c0-16.2-13.1-29.3-29.3-29.3h-58.5c-16.2,0-29.3,13.1-29.3,29.3v157.1h117.1V138.6z" style="fill: rgb(213, 83, 39);"/>
	</g>
	<g>
		<path class="st3" d="M1006.7,275.1v26.5c0,23.1,13.1,41.8,29.3,41.8h58.5c16.2,0,29.3-18.7,29.3-41.8v-26.5H1006.7z" style="fill: rgb(181, 218, 161);"/>
	</g>
	<g>
		<path class="st4" d="M1049,248.3c0,5.2-4.9,9.4-11,9.4l0,0c-6.1,0-11-4.2-11-9.4V141c0-5.2,4.9-9.4,11-9.4l0,0&#10;&#9;&#9;&#9;c6.1,0,11,4.2,11,9.4V248.3z" style="fill: rgb(192, 62, 39);"/>
	</g>
	<g>
		<path class="st4" d="M1103.4,248.3c0,5.2-4.9,9.4-11,9.4l0,0c-6.1,0-11-4.2-11-9.4V141c0-5.2,4.9-9.4,11-9.4l0,0&#10;&#9;&#9;&#9;c6.1,0,11,4.2,11,9.4V248.3z" style="fill: rgb(192, 62, 39);"/>
	</g>
</g>
<g>
	<g>
		<path class="st1" d="M708.3,865.3c0,6.6-5.3,11.9-11.9,11.9l0,0c-6.6,0-11.9-5.3-11.9-11.9V595.9c0-6.6,5.3-11.9,11.9-11.9l0,0&#10;&#9;&#9;&#9;c6.6,0,11.9,5.3,11.9,11.9V865.3z" style="fill: rgb(118, 75, 30);"/>
	</g>
	<g>
		<path class="st5" d="M754.9,554.3c0-16.2-13.1-29.3-29.3-29.3h-58.5c-16.2,0-29.3,13.1-29.3,29.3v157.1h117.1V554.3z" style="fill: rgb(110, 74, 29);"/>
	</g>
	<g>
		<path class="st3" d="M637.8,690.8v26.5c0,23.1,13.1,41.8,29.3,41.8h58.5c16.2,0,29.3-18.7,29.3-41.8v-26.5H637.8z" style="fill: rgb(181, 218, 161);"/>
	</g>
	<g>
		<path class="st6" d="M675.8,664c0,5.2-4.6,9.4-10.2,9.4l0,0c-5.6,0-10.2-4.2-10.2-9.4V556.7c0-5.2,4.6-9.4,10.2-9.4l0,0&#10;&#9;&#9;&#9;c5.6,0,10.2,4.2,10.2,9.4V664z" style="fill: rgb(63, 42, 16);"/>
	</g>
	<g>
		<path class="st6" d="M707.1,664c0,5.2-4.6,9.4-10.2,9.4l0,0c-5.6,0-10.2-4.2-10.2-9.4V556.7c0-5.2,4.6-9.4,10.2-9.4l0,0&#10;&#9;&#9;&#9;c5.6,0,10.2,4.2,10.2,9.4V664z" style="fill: rgb(63, 42, 16);"/>
	</g>
	<g>
		<path class="st6" d="M738.3,664c0,5.2-4.6,9.4-10.2,9.4l0,0c-5.6,0-10.2-4.2-10.2-9.4V556.7c0-5.2,4.6-9.4,10.2-9.4l0,0&#10;&#9;&#9;&#9;c5.6,0,10.2,4.2,10.2,9.4V664z" style="fill: rgb(63, 42, 16);"/>
	</g>
</g>
<g>
	<g>
		<path d="M 698.2000122070312 451.5 L 696.5 453.29998779296875 L 694.4000244140625 451.29998779296875 L 696.4000244140625 457.6000061035156 Z" class="st1" style="fill: rgb(118, 75, 30);"/>
	</g>
	<g>
		<path d="M 698.2000122070312 451.5 L 703.9000244140625 433.3999938964844 L 696.5 426 L 688.9000244140625 433.6000061035156 L 694.4000244140625 451.29998779296875 L 696.5 453.29998779296875 Z" class="st1" style="fill: rgb(118, 75, 30);"/>
	</g>
	<g>
		<path d="M 682.5999755859375 413.20001220703125 L 687.0999755859375 427.70001220703125 L 692.2000122070312 422.70001220703125 Z" class="st1" style="fill: rgb(118, 75, 30);"/>
	</g>
	<g>
		<path d="M 705.7000122070312 427.6000061035156 L 710 413.5 L 700.7999877929688 422.70001220703125 Z" class="st1" style="fill: rgb(118, 75, 30);"/>
	</g>
	<g>
		<path d="M 710.0999755859375 405.5 L 696.5 391.79998779296875 L 682.7999877929688 405.5 L 696.5 419.1000061035156 Z" class="st1" style="fill: rgb(118, 75, 30);"/>
	</g>
	<g>
		<path d="M 678.5 374.8999938964844 L 672.5999755859375 380.79998779296875 L 679 401.6000061035156 L 692.2000122070312 388.5 Z" class="st1" style="fill: rgb(118, 75, 30);"/>
	</g>
	<g>
		<path d="M 700.7999877929688 388.5 L 713.7000122070312 401.5 L 720.2000122070312 380.6000061035156 L 714.4000244140625 374.8999938964844 Z" class="st1" style="fill: rgb(118, 75, 30);"/>
	</g>
	<g>
		<path d="M 667.5999755859375 364.6000061035156 L 670.7000122070312 374.79998779296875 L 674.2000122070312 371.29998779296875 Z" class="st1" style="fill: rgb(118, 75, 30);"/>
	</g>
	<g>
		<path d="M 710.0999755859375 371.29998779296875 L 696.5 357.6000061035156 L 682.7999877929688 371.29998779296875 L 696.5 384.8999938964844 Z" class="st1" style="fill: rgb(118, 75, 30);"/>
	</g>
	<g>
		<path d="M 722.0999755859375 374.6000061035156 L 725 365 L 718.7000122070312 371.29998779296875 Z" class="st1" style="fill: rgb(118, 75, 30);"/>
	</g>
	<g>
		
			<path d="M 668.900024 344.700012 H 688.200024 V 364.000011 H 668.900024 V 344.700012 Z" transform="matrix(0.7071 -0.7071 0.7071 0.7071 -51.8014 583.5676)" class="st1" style="fill: rgb(118, 75, 30);"/>
	</g>
	<g>
		
			<path d="M 704.799988 344.700012 H 724.099987 V 364.000011 H 704.799988 V 344.700012 Z" transform="matrix(-0.7072 -0.707 0.707 -0.7072 969.1707 1109.9933)" class="st1" style="fill: rgb(118, 75, 30);"/>
	</g>
	<g>
		<path d="M 660.5999755859375 323.3999938964844 L 656.2000122070312 327.8999938964844 L 662.5999755859375 348.70001220703125 L 674.2000122070312 337.1000061035156 Z" class="st1" style="fill: rgb(118, 75, 30);"/>
	</g>
	<g>
		<path d="M 696.5 350.70001220703125 L 710.0999755859375 337.1000061035156 L 696.5 323.3999938964844 L 682.7999877929688 337.1000061035156 Z" class="st1" style="fill: rgb(118, 75, 30);"/>
	</g>
	<g>
		<path d="M 718.7000122070312 337.1000061035156 L 730.0999755859375 348.5 L 736.5999755859375 327.6000061035156 L 732.4000244140625 323.3999938964844 Z" class="st1" style="fill: rgb(118, 75, 30);"/>
	</g>
	<g>
		<path d="M 652.5999755859375 316.5 L 654.2999877929688 322 L 656.2999877929688 320.1000061035156 Z" class="st1" style="fill: rgb(118, 75, 30);"/>
	</g>
	<g>
		<path d="M 692.2000122070312 320.1000061035156 L 678.5 306.5 L 664.9000244140625 320.1000061035156 L 678.5 333.79998779296875 Z" class="st1" style="fill: rgb(118, 75, 30);"/>
	</g>
	<g>
		<path d="M 700.7999877929688 320.1000061035156 L 714.4000244140625 333.79998779296875 L 728.0999755859375 320.1000061035156 L 714.4000244140625 306.5 Z" class="st1" style="fill: rgb(118, 75, 30);"/>
	</g>
	<g>
		<path d="M 738.4000244140625 321.79998779296875 L 739.9000244140625 316.8999938964844 L 736.7000122070312 320.1000061035156 Z" class="st1" style="fill: rgb(118, 75, 30);"/>
	</g>
	<g>
		<path d="M 674.2000122070312 302.8999938964844 L 660.5999755859375 289.20001220703125 L 648.0999755859375 301.79998779296875 L 649.0999755859375 305 L 660.5999755859375 316.5 Z" class="st1" style="fill: rgb(118, 75, 30);"/>
	</g>
	<g>
		<path d="M 696.5 289.20001220703125 L 682.7999877929688 302.8999938964844 L 696.5 316.5 L 710.0999755859375 302.8999938964844 Z" class="st1" style="fill: rgb(118, 75, 30);"/>
	</g>
	<g>
		<path d="M 718.7000122070312 302.8999938964844 L 732.4000244140625 316.5 L 743.5 305.3999938964844 L 744.7000122070312 301.5 L 732.4000244140625 289.20001220703125 Z" class="st1" style="fill: rgb(118, 75, 30);"/>
	</g>
	<g>
		<path d="M 642.5999755859375 272.29998779296875 L 639.7999877929688 275.1000061035156 L 646.2000122070312 295.8999938964844 L 656.2999877929688 285.8999938964844 Z" class="st1" style="fill: rgb(118, 75, 30);"/>
	</g>
	<g>
		
			<path d="M 668.900024 276.299988 H 688.200024 V 295.599987 H 668.900024 V 276.299988 Z" transform="matrix(0.7072 0.707 -0.707 0.7072 400.8485 -396.0191)" class="st1" style="fill: rgb(118, 75, 30);"/>
	</g>
	<g>
		<path d="M 700.7999877929688 285.8999938964844 L 714.4000244140625 299.6000061035156 L 728.0999755859375 285.8999938964844 L 714.4000244140625 272.29998779296875 Z" class="st1" style="fill: rgb(118, 75, 30);"/>
	</g>
	<g>
		<path d="M 736.7000122070312 285.8999938964844 L 746.5 295.70001220703125 L 752.9000244140625 274.8999938964844 L 750.2999877929688 272.29998779296875 Z" class="st1" style="fill: rgb(118, 75, 30);"/>
	</g>
	<g>
		<path d="M 637.5999755859375 267.8999938964844 L 637.9000244140625 269.1000061035156 L 638.2999877929688 268.70001220703125 Z" class="st1" style="fill: rgb(118, 75, 30);"/>
	</g>
	<g>
		<path d="M 660.5999755859375 255 L 646.9000244140625 268.70001220703125 L 660.5999755859375 282.29998779296875 L 674.2000122070312 268.70001220703125 Z" class="st1" style="fill: rgb(118, 75, 30);"/>
	</g>
	<g>
		<path d="M 696.5 282.29998779296875 L 710.0999755859375 268.70001220703125 L 696.5 255 L 682.7999877929688 268.70001220703125 Z" class="st1" style="fill: rgb(118, 75, 30);"/>
	</g>
	<g>
		
			<path d="M 722.700012 259 H 742.000011 V 278.299999 H 722.700012 V 259 Z" transform="matrix(-0.7071 0.7072 -0.7072 -0.7071 1440.2078 -59.2533)" class="st1" style="fill: rgb(118, 75, 30);"/>
	</g>
	<g>
		<path d="M 754.7999877929688 268.79998779296875 L 754.9000244140625 268.3999938964844 L 754.5999755859375 268.70001220703125 Z" class="st1" style="fill: rgb(118, 75, 30);"/>
	</g>
	<g>
		<path d="M 656.2999877929688 251.6999969482422 L 642.5999755859375 238.10000610351562 L 631.7000122070312 249 L 634.0999755859375 256.8999938964844 L 642.5999755859375 265.3999938964844 Z" class="st1" style="fill: rgb(118, 75, 30);"/>
	</g>
	<g>
		
			<path d="M 668.900024 242.100006 H 688.200024 V 261.400005 H 668.900024 V 242.100006 Z" transform="matrix(0.7071 0.7071 -0.7071 0.7071 376.727 -406.0598)" class="st1" style="fill: rgb(118, 75, 30);"/>
	</g>
	<g>
		<path d="M 728.0999755859375 251.6999969482422 L 714.4000244140625 238.10000610351562 L 700.7999877929688 251.6999969482422 L 714.4000244140625 265.3999938964844 Z" class="st1" style="fill: rgb(118, 75, 30);"/>
	</g>
	<g>
		<path d="M 736.7000122070312 251.6999969482422 L 750.2999877929688 265.3999938964844 L 758.2999877929688 257.3999938964844 L 761 248.6999969482422 L 750.2999877929688 238.10000610351562 Z" class="st1" style="fill: rgb(118, 75, 30);"/>
	</g>
	<g>
		<path d="M 627.4000244140625 235.10000610351562 L 629.7999877929688 243 L 637.7999877929688 235 Z" class="st1" style="fill: rgb(118, 75, 30);"/>
	</g>
	<g>
		<path d="M 674.0999755859375 234.60000610351562 L 647.2999877929688 234.89999389648438 L 660.5999755859375 248.10000610351562 Z" class="st1" style="fill: rgb(118, 75, 30);"/>
	</g>
	<g>
		<path d="M 710.0999755859375 234.5 L 710 234.3000030517578 L 682.9000244140625 234.60000610351562 L 696.5 248.10000610351562 Z" class="st1" style="fill: rgb(118, 75, 30);"/>
	</g>
	<g>
		<path d="M 732.4000244140625 248.10000610351562 L 746 234.5 L 745.5 234 L 719 234.1999969482422 L 718.7000122070312 234.5 Z" class="st1" style="fill: rgb(118, 75, 30);"/>
	</g>
	<g>
		<path d="M 762.9000244140625 242.6999969482422 L 765.5999755859375 233.8000030517578 L 755.2000122070312 233.89999389648438 L 754.5999755859375 234.5 Z" class="st1" style="fill: rgb(118, 75, 30);"/>
	</g>
</g>
<g>
	<path class="st3" d="M766.8,232.9c6-11.4,9.4-24.3,9.4-38c0-45.1-36.6-81.7-81.7-81.7c-45.1,0-81.7,36.6-81.7,81.7&#10;&#9;&#9;c0,13.7,3.4,26.6,9.4,38H766.8z" style="fill: rgb(181, 218, 161);"/>
</g>
<g>
	<path class="st3" d="M638.1,232.9c0,8-6.5,14.6-14.6,14.6s-14.6-6.5-14.6-14.6c0-8,6.5-14.6,14.6-14.6S638.1,224.8,638.1,232.9z" style="fill: rgb(181, 218, 161);"/>
</g>
<g>
	<path class="st3" d="M781,232.9c0,8-6.5,14.6-14.6,14.6c-8.1,0-14.6-6.5-14.6-14.6c0-8,6.5-14.6,14.6-14.6&#10;&#9;&#9;C774.5,218.3,781,224.8,781,232.9z" style="fill: rgb(181, 218, 161);"/>
</g>
<g>
	<path class="st3" d="M623.5,247.4c0,0,87.9-10.8,142.9,0l1.7-16.6l-85.3-23.4l-64,30.6" style="fill: rgb(181, 218, 161);"/>
</g>
<g>
	<g>
		<path class="st7" d="M698.2,127.6c12.4,1.3,23.7,4.4,34.1,11.5c11,7.6,17.6,15.8,22.3,28.1c2.8,7.3-8.9,10.4-11.7,3.2&#10;&#9;&#9;&#9;c-7.1-18.5-25.4-28.8-44.6-30.7C690.5,138.9,690.4,126.8,698.2,127.6L698.2,127.6z" style="fill: rgb(237, 221, 204);"/>
	</g>
</g>
<g>
	<g>
		<path class="st1" d="M336.8,453.3c0,6.9-5.6,12.4-12.4,12.4l0,0c-6.9,0-12.4-5.6-12.4-12.4V171.9c0-6.9,5.6-12.4,12.4-12.4l0,0&#10;&#9;&#9;&#9;c6.9,0,12.4,5.6,12.4,12.4V453.3z" style="fill: rgb(118, 75, 30);"/>
	</g>
	<g>
		<path class="st8" d="M378.9,243.9l-101,101c-4.1-1.8-7.2-7-7.2-13.2v-35.8l108.1-108.1V243.9z" style="fill: rgb(255, 193, 14);"/>
	</g>
	<g>
		<path class="st2" d="M378.9,262.2L378.9,262.2l-0.1,37.8l-45.5,45.5h-52.2c-1.1,0-2.2-0.3-3.2-0.7l101-101V262.2z" style="fill: rgb(213, 83, 39);"/>
	</g>
	<g>
		<path class="st8" d="M378.8,331.7c0,7.7-4.6,13.9-10.3,13.9h-35.2l45.5-45.5V331.7z" style="fill: rgb(255, 193, 14);"/>
	</g>
	<g>
		<path class="st2" d="M270.6,177.9c0-0.8,0.1-1.5,0.1-2.3c0.9-39.1,24.7-70.5,54-70.5c6.9,0,13.6,1.8,19.7,5l-73.8,73.8V177.9z" style="fill: rgb(213, 83, 39);"/>
	</g>
	<g>
		<path class="st2" d="M270.6,262.2v-22.3l100.1-100.1c4.8,10.5,7.7,22.7,8,35.8c0,0.8,0.1,1.5,0.1,2.3v9.9L270.7,295.9L270.6,262.2&#10;&#9;&#9;&#9;L270.6,262.2z" style="fill: rgb(213, 83, 39);"/>
	</g>
	<g>
		<path class="st8" d="M270.6,183.8l73.8-73.8c11,5.8,20.2,16.3,26.4,29.7L270.6,239.9V183.8z" style="fill: rgb(255, 193, 14);"/>
	</g>
	<g class="st9" style="opacity: 0.1;">
		<path class="st10" d="M378.8,175.6c-0.7-29.6-14.5-54.7-33.8-65.2c10,77.8,10.1,156.6,8.2,235.2h15.3c5.7,0,10.3-6.2,10.3-13.9&#10;&#9;&#9;&#9;v-69.5h0.1v-84.4C378.9,177.1,378.8,176.3,378.8,175.6z" style="fill: rgb(151, 50, 32);"/>
	</g>
</g>
<g>
	<g>
		<path d="M 1069 871 L 1067.300048828125 872.7000122070312 L 1065.199951171875 870.7999877929688 L 1067.199951171875 876.7000122070312 Z" class="st1" style="fill: rgb(118, 75, 30);"/>
	</g>
	<g>
		<path d="M 1069 871 L 1074.5999755859375 854 L 1067.300048828125 847.0999755859375 L 1059.699951171875 854.0999755859375 L 1065.199951171875 870.7999877929688 L 1067.300048828125 872.7000122070312 Z" class="st1" style="fill: rgb(118, 75, 30);"/>
	</g>
	<g>
		<path d="M 1053.4000244140625 835 L 1057.9000244140625 848.7000122070312 L 1062.9000244140625 843.9000244140625 Z" class="st1" style="fill: rgb(118, 75, 30);"/>
	</g>
	<g>
		<path d="M 1076.4000244140625 848.5 L 1080.800048828125 835.2000122070312 L 1071.5999755859375 843.9000244140625 Z" class="st1" style="fill: rgb(118, 75, 30);"/>
	</g>
	<g>
		<path d="M 1080.9000244140625 827.7000122070312 L 1067.300048828125 814.9000244140625 L 1053.5999755859375 827.7000122070312 L 1067.300048828125 840.5999755859375 Z" class="st1" style="fill: rgb(118, 75, 30);"/>
	</g>
	<g>
		<path d="M 1049.300048828125 799 L 1043.4000244140625 804.5999755859375 L 1049.800048828125 824.0999755859375 L 1062.9000244140625 811.7999877929688 Z" class="st1" style="fill: rgb(118, 75, 30);"/>
	</g>
	<g>
		<path d="M 1071.5999755859375 811.7999877929688 L 1084.5 824 L 1091 804.4000244140625 L 1085.199951171875 799 Z" class="st1" style="fill: rgb(118, 75, 30);"/>
	</g>
	<g>
		<path d="M 1038.300048828125 789.2999877929688 L 1041.5 798.9000244140625 L 1045 795.5999755859375 Z" class="st1" style="fill: rgb(118, 75, 30);"/>
	</g>
	<g>
		<path d="M 1080.9000244140625 795.5999755859375 L 1067.300048828125 782.7999877929688 L 1053.5999755859375 795.5999755859375 L 1067.300048828125 808.4000244140625 Z" class="st1" style="fill: rgb(118, 75, 30);"/>
	</g>
	<g>
		<path d="M 1092.800048828125 798.7000122070312 L 1095.800048828125 789.7000122070312 L 1089.5 795.5999755859375 Z" class="st1" style="fill: rgb(118, 75, 30);"/>
	</g>
	<g>
		<path d="M 1049.300048828125 766.7999877929688 L 1035.699951171875 779.5999755859375 L 1049.300048828125 792.5 L 1062.9000244140625 779.5999755859375 Z" class="st1" style="fill: rgb(118, 75, 30);"/>
	</g>
	<g>
		<path d="M 1071.5999755859375 779.5999755859375 L 1085.199951171875 792.5 L 1098.9000244140625 779.5999755859375 L 1085.199951171875 766.7999877929688 Z" class="st1" style="fill: rgb(118, 75, 30);"/>
	</g>
	<g>
		<path d="M 1031.4000244140625 750.5999755859375 L 1026.9000244140625 754.7999877929688 L 1033.4000244140625 774.4000244140625 L 1045 763.5 Z" class="st1" style="fill: rgb(118, 75, 30);"/>
	</g>
	<g>
		<path d="M 1067.300048828125 776.2999877929688 L 1080.9000244140625 763.5 L 1067.300048828125 750.5999755859375 L 1053.5999755859375 763.5 Z" class="st1" style="fill: rgb(118, 75, 30);"/>
	</g>
	<g>
		<path d="M 1089.5 763.5 L 1100.9000244140625 774.2000122070312 L 1107.4000244140625 754.5999755859375 L 1103.199951171875 750.5999755859375 Z" class="st1" style="fill: rgb(118, 75, 30);"/>
	</g>
	<g>
		<path d="M 1023.4000244140625 744.0999755859375 L 1025.0999755859375 749.2999877929688 L 1027 747.5 Z" class="st1" style="fill: rgb(118, 75, 30);"/>
	</g>
	<g>
		<path d="M 1062.9000244140625 747.5 L 1049.300048828125 734.7000122070312 L 1035.699951171875 747.5 L 1049.300048828125 760.2999877929688 Z" class="st1" style="fill: rgb(118, 75, 30);"/>
	</g>
	<g>
		<path d="M 1071.5999755859375 747.5 L 1085.199951171875 760.2999877929688 L 1098.9000244140625 747.5 L 1085.199951171875 734.7000122070312 Z" class="st1" style="fill: rgb(118, 75, 30);"/>
	</g>
	<g>
		<path d="M 1109.199951171875 749.0999755859375 L 1110.699951171875 744.5 L 1107.5 747.5 Z" class="st1" style="fill: rgb(118, 75, 30);"/>
	</g>
	<g>
		<path d="M 1045 731.2999877929688 L 1031.4000244140625 718.5 L 1018.7999877929688 730.2999877929688 L 1019.7999877929688 733.2999877929688 L 1031.4000244140625 744.0999755859375 Z" class="st1" style="fill: rgb(118, 75, 30);"/>
	</g>
	<g>
		<path d="M 1067.300048828125 718.5 L 1053.5999755859375 731.2999877929688 L 1067.300048828125 744.0999755859375 L 1080.9000244140625 731.2999877929688 Z" class="st1" style="fill: rgb(118, 75, 30);"/>
	</g>
	<g>
		<path d="M 1089.5 731.2999877929688 L 1103.199951171875 744.0999755859375 L 1114.199951171875 733.7000122070312 L 1115.5 730 L 1103.199951171875 718.5 Z" class="st1" style="fill: rgb(118, 75, 30);"/>
	</g>
	<g>
		<path d="M 1013.4000244140625 702.5 L 1010.5999755859375 705.2000122070312 L 1017 724.7999877929688 L 1027 715.4000244140625 Z" class="st1" style="fill: rgb(118, 75, 30);"/>
	</g>
	<g>
		<path d="M 1062.9000244140625 715.4000244140625 L 1049.300048828125 702.5 L 1035.699951171875 715.4000244140625 L 1049.300048828125 728.2000122070312 Z" class="st1" style="fill: rgb(118, 75, 30);"/>
	</g>
	<g>
		<path d="M 1071.5999755859375 715.4000244140625 L 1085.199951171875 728.2000122070312 L 1098.9000244140625 715.4000244140625 L 1085.199951171875 702.5 Z" class="st1" style="fill: rgb(118, 75, 30);"/>
	</g>
	<g>
		<path d="M 1107.5 715.4000244140625 L 1117.300048828125 724.5999755859375 L 1123.699951171875 705 L 1121.0999755859375 702.5 Z" class="st1" style="fill: rgb(118, 75, 30);"/>
	</g>
	<g>
		<path d="M 1008.2999877929688 698.5 L 1008.7000122070312 699.5 L 1009.0999755859375 699.2000122070312 Z" class="st1" style="fill: rgb(118, 75, 30);"/>
	</g>
	<g>
		<path d="M 1031.4000244140625 686.2999877929688 L 1017.7000122070312 699.2000122070312 L 1031.4000244140625 712 L 1045 699.2000122070312 Z" class="st1" style="fill: rgb(118, 75, 30);"/>
	</g>
	<g>
		<path d="M 1067.300048828125 712 L 1080.9000244140625 699.2000122070312 L 1067.300048828125 686.2999877929688 L 1053.5999755859375 699.2000122070312 Z" class="st1" style="fill: rgb(118, 75, 30);"/>
	</g>
	<g>
		<path d="M 1103.199951171875 712 L 1116.800048828125 699.2000122070312 L 1103.199951171875 686.2999877929688 L 1089.5 699.2000122070312 Z" class="st1" style="fill: rgb(118, 75, 30);"/>
	</g>
	<g>
		<path d="M 1125.5999755859375 699.2999877929688 L 1125.699951171875 698.9000244140625 L 1125.4000244140625 699.2000122070312 Z" class="st1" style="fill: rgb(118, 75, 30);"/>
	</g>
	<g>
		<path d="M 1027 683.2000122070312 L 1013.4000244140625 670.4000244140625 L 1002.5 680.7000122070312 L 1004.9000244140625 688.0999755859375 L 1013.4000244140625 696 Z" class="st1" style="fill: rgb(118, 75, 30);"/>
	</g>
	<g>
		<path d="M 1062.9000244140625 683.2000122070312 L 1049.300048828125 670.4000244140625 L 1035.699951171875 683.2000122070312 L 1049.300048828125 696 Z" class="st1" style="fill: rgb(118, 75, 30);"/>
	</g>
	<g>
		<path d="M 1098.9000244140625 683.2000122070312 L 1085.199951171875 670.4000244140625 L 1071.5999755859375 683.2000122070312 L 1085.199951171875 696 Z" class="st1" style="fill: rgb(118, 75, 30);"/>
	</g>
	<g>
		<path d="M 1107.5 683.2000122070312 L 1121.0999755859375 696 L 1129.0999755859375 688.5 L 1131.800048828125 680.4000244140625 L 1121.0999755859375 670.4000244140625 Z" class="st1" style="fill: rgb(118, 75, 30);"/>
	</g>
	<g>
		<path d="M 998.2000122070312 667.5999755859375 L 1000.5999755859375 675 L 1008.5999755859375 667.5 Z" class="st1" style="fill: rgb(118, 75, 30);"/>
	</g>
	<g>
		<path d="M 1044.800048828125 667.2000122070312 L 1018.0999755859375 667.4000244140625 L 1031.4000244140625 679.9000244140625 Z" class="st1" style="fill: rgb(118, 75, 30);"/>
	</g>
	<g>
		<path d="M 1080.9000244140625 667 L 1080.699951171875 666.9000244140625 L 1053.699951171875 667.0999755859375 L 1067.300048828125 679.9000244140625 Z" class="st1" style="fill: rgb(118, 75, 30);"/>
	</g>
	<g>
		<path d="M 1103.199951171875 679.9000244140625 L 1116.800048828125 667 L 1116.300048828125 666.5999755859375 L 1089.800048828125 666.7999877929688 L 1089.5 667 Z" class="st1" style="fill: rgb(118, 75, 30);"/>
	</g>
	<g>
		<path d="M 1133.5999755859375 674.7999877929688 L 1136.4000244140625 666.4000244140625 L 1126 666.5 L 1125.4000244140625 667 Z" class="st1" style="fill: rgb(118, 75, 30);"/>
	</g>
</g>
<g>
	<path class="st3" d="M983.4,666.2c-8.6-10.3-13.9-23.2-13.9-37.4c0-33.5,28.9-60.7,64.6-60.7c35.7,0,64.6,27.2,64.6,60.7&#10;&#9;&#9;c0,14.1-5.2,27.1-13.8,37.4H983.4z" style="fill: rgb(181, 218, 161);"/>
</g>
<g>
	<path d="M 1132.400047 568.099976 A 64.599998 60.700001 0 0 1 1067.800049 628.799976 A 64.599998 60.700001 0 0 1 1003.20005 568.099976 A 64.599998 60.700001 0 0 1 1067.800049 507.399975 A 64.599998 60.700001 0 0 1 1132.400047 568.099976 Z" class="st5" style="fill: rgb(110, 74, 29);"/>
</g>
<g>
	<path class="st3" d="M983.4,665.9l54,0c0.3,0.3,0,0.4,0.3,0.7c0.9,0.8,0.7,2.1,1.4,3.1c0.9,1.1,1,1.3,0.4,0.5&#10;&#9;&#9;c1.3,1.8,2.5,3.6,3.6,5.4c1.2,1.9,1.4,3.5,2.7,5.4c-0.9,0.1-0.9,0.3-1.7,0.3c-1.6-0.1-3.3-0.2-4.9-0.5c-8.5-4.2-19.6-4.3-28.8-1.3&#10;&#9;&#9;c-5.4,1.7-11,3.2-16.5,3.4c-6.7-1.1-12.6-3.9-12.7-11.2c0-0.8-0.1-1.5-0.2-2.2C981.6,668.1,982.4,666.9,983.4,665.9z" style="fill: rgb(181, 218, 161);"/>
</g>
<g>
	<path class="st11" d="M1054.8,697.7c0.5-1.9,1.2-3.7,2-5.5C1056.2,694.2,1055.5,696,1054.8,697.7z" style="fill: none;"/>
	<path class="st11" d="M1112.8,701.1c-0.3-0.9-0.5-1.9-0.8-2.9c0.1-0.2,0.1-0.4,0.2-0.7C1112.4,698.7,1112.6,699.9,1112.8,701.1z" style="fill: none;"/>
	<path class="st11" d="M1112.2,697.6c-0.1,0.3-0.1,0.5-0.2,0.7c-0.6-2.2-1.1-4.5-1.5-6.7c0.4,1.3,0.9,2.5,1.2,3.8&#10;&#9;&#9;C1111.9,696.1,1112,696.8,1112.2,697.6z" style="fill: none;"/>
	<path class="st12" d="M1054.4,699.2c-0.4,0.6-0.8,1.3-1.3,1.9c0.6-1,1.1-2.1,1.7-3.4C1054.6,698.2,1054.5,698.7,1054.4,699.2z" style="fill: rgb(255, 240, 77);"/>
	<path class="st8" d="M1045.5,680.2c-8.6-11.8-13.8-26.6-13.8-42.7c0-38.3,28.9-69.4,64.6-69.4s64.6,31.1,64.6,69.4&#10;&#9;&#9;c0,14.9-4.5,28.6-11.9,39.9c0.5,0.9,1,2,1.5,3.1c-1.6-3-4.2-5.5-4.2-5.5s2.6,2.5,4.2,5.5c0.3,0.8,0.7,1.6,1,2.4&#10;&#9;&#9;c0.7,2.5,0.1,5-3.9,6.3c-10.1,3.3-23.8,0.5-26.6,13.9c-2,9.6-5.6,5.3-8.1-2c-0.2-1.2-0.4-2.4-0.6-3.5c1.4-4.6,3.2-16.2-10.1-22.8&#10;&#9;&#9;c-16.9-8.4-13.9-6.4-19.7-3c-5.8,3.5-24.4-8.9-23.5,3.1c0.5,5.9-0.5,12.1-2.1,17.3c-0.8,1.8-1.5,3.6-2,5.5&#10;&#9;&#9;c-0.6,1.3-1.1,2.4-1.7,3.4c-1.5,2.2-3,4.2-4.5,5.6c-0.7,0.1-1.3,0.2-1.8,0.2c-1.9,0.1-2.6,0.2-3.2,0.1c-1.6-2.5-2.7-5.7-2.9-10.1&#10;&#9;&#9;c-0.3-3.8,3.9-12.8,4.4-16.7L1045.5,680.2z" style="fill: rgb(255, 193, 14);"/>
</g>
<g>
	<g>
		<path class="st7" d="M1075.5,517.5c8.4,0.8,15.9,2.9,22.9,7.8c7.4,5.1,11.8,10.6,15,18.9c1.9,4.9-6,7-7.9,2.2&#10;&#9;&#9;&#9;c-4.8-12.5-17.1-19.4-30-20.7C1070.3,525.1,1070.2,517,1075.5,517.5L1075.5,517.5z" style="fill: rgb(237, 221, 204);"/>
	</g>
</g>
<g>
	<g>
		<path class="st7" d="M1102.5,579.2c8.4,0.8,15.9,2.9,22.9,7.8c7.4,5.1,11.8,10.6,15,18.9c1.9,4.9-6,7-7.9,2.2&#10;&#9;&#9;&#9;c-4.8-12.5-17.1-19.4-30-20.7C1097.3,586.9,1097.3,578.7,1102.5,579.2L1102.5,579.2z" style="fill: rgb(237, 221, 204);"/>
	</g>
</g>
<g>
	<g>
		<path d="M 38.70000076293945 914.2000122070312 L 44.70000076293945 911.2999877929688 L 45.599998474121094 904.7999877929688 L 50.20000076293945 909.5 L 56.79999923706055 908.4000244140625 L 53.70000076293945 914.2000122070312 L 56.79999923706055 920 L 50.20000076293945 918.9000244140625 L 45.599998474121094 923.5999755859375 L 44.70000076293945 917.0999755859375 Z"/>
	</g>
	<g>
		<path d="M 38.70000076293945 890.5999755859375 L 44.70000076293945 887.7000122070312 L 45.599998474121094 881.2000122070312 L 50.20000076293945 885.9000244140625 L 56.79999923706055 884.7999877929688 L 53.70000076293945 890.5999755859375 L 56.79999923706055 896.5 L 50.20000076293945 895.2999877929688 L 45.599998474121094 900.0999755859375 L 44.70000076293945 893.5 Z"/>
	</g>
	<g>
		<path d="M 38.70000076293945 867.0999755859375 L 44.70000076293945 864.2000122070312 L 45.599998474121094 857.5999755859375 L 50.20000076293945 862.4000244140625 L 56.79999923706055 861.2000122070312 L 53.70000076293945 867.0999755859375 L 56.79999923706055 872.9000244140625 L 50.20000076293945 871.7999877929688 L 45.599998474121094 876.5 L 44.70000076293945 870 Z"/>
	</g>
	<g>
		<path d="M 38.70000076293945 843.5 L 44.70000076293945 840.5999755859375 L 45.599998474121094 834.0999755859375 L 50.20000076293945 838.7999877929688 L 56.79999923706055 837.7000122070312 L 53.70000076293945 843.5 L 56.79999923706055 849.2999877929688 L 50.20000076293945 848.2000122070312 L 45.599998474121094 852.9000244140625 L 44.70000076293945 846.4000244140625 Z"/>
	</g>
	<g>
		<path d="M 38.70000076293945 819.9000244140625 L 44.70000076293945 817 L 45.599998474121094 810.5 L 50.20000076293945 815.2000122070312 L 56.79999923706055 814.0999755859375 L 53.70000076293945 819.9000244140625 L 56.79999923706055 825.7999877929688 L 50.20000076293945 824.5999755859375 L 45.599998474121094 829.4000244140625 L 44.70000076293945 822.7999877929688 Z"/>
	</g>
	<g>
		<path d="M 38.70000076293945 796.4000244140625 L 44.70000076293945 793.4000244140625 L 45.599998474121094 786.9000244140625 L 50.20000076293945 791.5999755859375 L 56.79999923706055 790.5 L 53.70000076293945 796.4000244140625 L 56.79999923706055 802.2000122070312 L 50.20000076293945 801.0999755859375 L 45.599998474121094 805.7999877929688 L 44.70000076293945 799.2999877929688 Z"/>
	</g>
	<g>
		<path d="M 38.70000076293945 772.7999877929688 L 44.70000076293945 769.9000244140625 L 45.599998474121094 763.4000244140625 L 50.20000076293945 768.0999755859375 L 56.79999923706055 767 L 53.70000076293945 772.7999877929688 L 56.79999923706055 778.5999755859375 L 50.20000076293945 777.5 L 45.599998474121094 782.2000122070312 L 44.70000076293945 775.7000122070312 Z"/>
	</g>
	<g>
		<path d="M 38.70000076293945 749.2000122070312 L 44.70000076293945 746.2999877929688 L 45.599998474121094 739.7999877929688 L 50.20000076293945 744.5 L 56.79999923706055 743.4000244140625 L 53.70000076293945 749.2000122070312 L 56.79999923706055 755.0999755859375 L 50.20000076293945 753.9000244140625 L 45.599998474121094 758.7000122070312 L 44.70000076293945 752.0999755859375 Z"/>
	</g>
	<g>
		<path d="M 38.70000076293945 725.7000122070312 L 44.70000076293945 722.7000122070312 L 45.599998474121094 716.2000122070312 L 50.20000076293945 720.9000244140625 L 56.79999923706055 719.7999877929688 L 53.70000076293945 725.7000122070312 L 56.79999923706055 731.5 L 50.20000076293945 730.4000244140625 L 45.599998474121094 735.0999755859375 L 44.70000076293945 728.5999755859375 Z"/>
	</g>
	<g>
		<path d="M 38.70000076293945 702.0999755859375 L 44.70000076293945 699.2000122070312 L 45.599998474121094 692.7000122070312 L 50.20000076293945 697.4000244140625 L 56.79999923706055 696.2999877929688 L 53.70000076293945 702.0999755859375 L 56.79999923706055 707.9000244140625 L 50.20000076293945 706.7999877929688 L 45.599998474121094 711.5 L 44.70000076293945 705 Z"/>
	</g>
	<g>
		<path d="M 38.70000076293945 678.5 L 44.70000076293945 675.5999755859375 L 45.599998474121094 669.0999755859375 L 50.20000076293945 673.7999877929688 L 56.79999923706055 672.7000122070312 L 53.70000076293945 678.5 L 56.79999923706055 684.4000244140625 L 50.20000076293945 683.2000122070312 L 45.599998474121094 688 L 44.70000076293945 681.4000244140625 Z"/>
	</g>
	<g>
		<path d="M 38.70000076293945 655 L 44.70000076293945 652 L 45.599998474121094 645.5 L 50.20000076293945 650.2000122070312 L 56.79999923706055 649.0999755859375 L 53.70000076293945 655 L 56.79999923706055 660.7999877929688 L 50.20000076293945 659.7000122070312 L 45.599998474121094 664.4000244140625 L 44.70000076293945 657.9000244140625 Z"/>
	</g>
	<g>
		<path d="M 38.70000076293945 631.4000244140625 L 44.70000076293945 628.5 L 45.599998474121094 622 L 50.20000076293945 626.7000122070312 L 56.79999923706055 625.5999755859375 L 53.70000076293945 631.4000244140625 L 56.79999923706055 637.2000122070312 L 50.20000076293945 636.0999755859375 L 45.599998474121094 640.7999877929688 L 44.70000076293945 634.2999877929688 Z"/>
	</g>
	<g>
		<path d="M 38.70000076293945 607.7999877929688 L 44.70000076293945 604.9000244140625 L 45.599998474121094 598.4000244140625 L 50.20000076293945 603.0999755859375 L 56.79999923706055 602 L 53.70000076293945 607.7999877929688 L 56.79999923706055 613.5999755859375 L 50.20000076293945 612.5 L 45.599998474121094 617.2999877929688 L 44.70000076293945 610.7000122070312 Z"/>
	</g>
	<g>
		<path d="M 38.70000076293945 584.2999877929688 L 44.70000076293945 581.2999877929688 L 45.599998474121094 574.7999877929688 L 50.20000076293945 579.5 L 56.79999923706055 578.4000244140625 L 53.70000076293945 584.2999877929688 L 56.79999923706055 590.0999755859375 L 50.20000076293945 589 L 45.599998474121094 593.7000122070312 L 44.70000076293945 587.2000122070312 Z"/>
	</g>
	<g>
		<path d="M 38.70000076293945 560.7000122070312 L 44.70000076293945 557.7999877929688 L 45.599998474121094 551.2999877929688 L 50.20000076293945 556 L 56.79999923706055 554.9000244140625 L 53.70000076293945 560.7000122070312 L 56.79999923706055 566.5 L 50.20000076293945 565.4000244140625 L 45.599998474121094 570.0999755859375 L 44.70000076293945 563.5999755859375 Z"/>
	</g>
	<g>
		<path d="M 38.70000076293945 537.0999755859375 L 44.70000076293945 534.2000122070312 L 45.599998474121094 527.7000122070312 L 50.20000076293945 532.4000244140625 L 56.79999923706055 531.2999877929688 L 53.70000076293945 537.0999755859375 L 56.79999923706055 542.9000244140625 L 50.20000076293945 541.7999877929688 L 45.599998474121094 546.5 L 44.70000076293945 540 Z"/>
	</g>
	<g>
		<path d="M 38.70000076293945 513.5999755859375 L 44.70000076293945 510.6000061035156 L 45.599998474121094 504.1000061035156 L 50.20000076293945 508.79998779296875 L 56.79999923706055 507.70001220703125 L 53.70000076293945 513.5999755859375 L 56.79999923706055 519.4000244140625 L 50.20000076293945 518.2999877929688 L 45.599998474121094 523 L 44.70000076293945 516.5 Z"/>
	</g>
	<g>
		<path d="M 38.70000076293945 490 L 44.70000076293945 487.1000061035156 L 45.599998474121094 480.6000061035156 L 50.20000076293945 485.29998779296875 L 56.79999923706055 484.20001220703125 L 53.70000076293945 490 L 56.79999923706055 495.79998779296875 L 50.20000076293945 494.70001220703125 L 45.599998474121094 499.3999938964844 L 44.70000076293945 492.8999938964844 Z"/>
	</g>
	<g>
		<path d="M 38.70000076293945 466.3999938964844 L 44.70000076293945 463.5 L 45.599998474121094 457 L 50.20000076293945 461.70001220703125 L 56.79999923706055 460.6000061035156 L 53.70000076293945 466.3999938964844 L 56.79999923706055 472.20001220703125 L 50.20000076293945 471.1000061035156 L 45.599998474121094 475.79998779296875 L 44.70000076293945 469.29998779296875 Z"/>
	</g>
	<g>
		<path d="M 38.70000076293945 442.8999938964844 L 44.70000076293945 439.8999938964844 L 45.599998474121094 433.3999938964844 L 50.20000076293945 438.1000061035156 L 56.79999923706055 437 L 53.70000076293945 442.8999938964844 L 56.79999923706055 448.70001220703125 L 50.20000076293945 447.6000061035156 L 45.599998474121094 452.29998779296875 L 44.70000076293945 445.79998779296875 Z"/>
	</g>
	<g>
		<path d="M 38.70000076293945 419.29998779296875 L 44.70000076293945 416.3999938964844 L 45.599998474121094 409.8999938964844 L 50.20000076293945 414.6000061035156 L 56.79999923706055 413.5 L 53.70000076293945 419.29998779296875 L 56.79999923706055 425.1000061035156 L 50.20000076293945 424 L 45.599998474121094 428.70001220703125 L 44.70000076293945 422.20001220703125 Z"/>
	</g>
	<g>
		<path d="M 38.70000076293945 395.70001220703125 L 44.70000076293945 392.79998779296875 L 45.599998474121094 386.29998779296875 L 50.20000076293945 391 L 56.79999923706055 389.8999938964844 L 53.70000076293945 395.70001220703125 L 56.79999923706055 401.5 L 50.20000076293945 400.3999938964844 L 45.599998474121094 405.1000061035156 L 44.70000076293945 398.6000061035156 Z"/>
	</g>
	<g>
		<path d="M 38.70000076293945 372.1000061035156 L 44.70000076293945 369.20001220703125 L 45.599998474121094 362.70001220703125 L 50.20000076293945 367.3999938964844 L 56.79999923706055 366.29998779296875 L 53.70000076293945 372.1000061035156 L 56.79999923706055 378 L 50.20000076293945 376.8999938964844 L 45.599998474121094 381.6000061035156 L 44.70000076293945 375.1000061035156 Z"/>
	</g>
	<g>
		<path d="M 38.70000076293945 348.6000061035156 L 44.70000076293945 345.70001220703125 L 45.599998474121094 339.20001220703125 L 50.20000076293945 343.8999938964844 L 56.79999923706055 342.79998779296875 L 53.70000076293945 348.6000061035156 L 56.79999923706055 354.3999938964844 L 50.20000076293945 353.29998779296875 L 45.599998474121094 358 L 44.70000076293945 351.5 Z"/>
	</g>
	<g>
		<path d="M 38.70000076293945 325 L 44.70000076293945 322.1000061035156 L 45.599998474121094 315.6000061035156 L 50.20000076293945 320.29998779296875 L 56.79999923706055 319.20001220703125 L 53.70000076293945 325 L 56.79999923706055 330.79998779296875 L 50.20000076293945 329.70001220703125 L 45.599998474121094 334.3999938964844 L 44.70000076293945 327.8999938964844 Z"/>
	</g>
	<g>
		<path d="M 38.70000076293945 301.3999938964844 L 44.70000076293945 298.5 L 45.599998474121094 292 L 50.20000076293945 296.70001220703125 L 56.79999923706055 295.6000061035156 L 53.70000076293945 301.3999938964844 L 56.79999923706055 307.29998779296875 L 50.20000076293945 306.20001220703125 L 45.599998474121094 310.8999938964844 L 44.70000076293945 304.3999938964844 Z"/>
	</g>
	<g>
		<path d="M 38.70000076293945 277.8999938964844 L 44.70000076293945 275 L 45.599998474121094 268.5 L 50.20000076293945 273.20001220703125 L 56.79999923706055 272.1000061035156 L 53.70000076293945 277.8999938964844 L 56.79999923706055 283.70001220703125 L 50.20000076293945 282.6000061035156 L 45.599998474121094 287.29998779296875 L 44.70000076293945 280.79998779296875 Z"/>
	</g>
	<g>
		<path d="M 38.70000076293945 254.3000030517578 L 44.70000076293945 251.39999389648438 L 45.599998474121094 244.89999389648438 L 50.20000076293945 249.60000610351562 L 56.79999923706055 248.5 L 53.70000076293945 254.3000030517578 L 56.79999923706055 260.1000061035156 L 50.20000076293945 259 L 45.599998474121094 263.70001220703125 L 44.70000076293945 257.20001220703125 Z"/>
	</g>
	<g>
		<path d="M 38.70000076293945 230.6999969482422 L 44.70000076293945 227.8000030517578 L 45.599998474121094 221.3000030517578 L 50.20000076293945 226 L 56.79999923706055 224.89999389648438 L 53.70000076293945 230.6999969482422 L 56.79999923706055 236.60000610351562 L 50.20000076293945 235.5 L 45.599998474121094 240.1999969482422 L 44.70000076293945 233.6999969482422 Z"/>
	</g>
	<g>
		<path d="M 38.70000076293945 207.1999969482422 L 44.70000076293945 204.3000030517578 L 45.599998474121094 197.8000030517578 L 50.20000076293945 202.5 L 56.79999923706055 201.39999389648438 L 53.70000076293945 207.1999969482422 L 56.79999923706055 213 L 50.20000076293945 211.89999389648438 L 45.599998474121094 216.60000610351562 L 44.70000076293945 210.10000610351562 Z"/>
	</g>
	<g>
		<path d="M 38.70000076293945 183.60000610351562 L 44.70000076293945 180.6999969482422 L 45.599998474121094 174.1999969482422 L 50.20000076293945 178.89999389648438 L 56.79999923706055 177.8000030517578 L 53.70000076293945 183.60000610351562 L 56.79999923706055 189.39999389648438 L 50.20000076293945 188.3000030517578 L 45.599998474121094 193 L 44.70000076293945 186.5 Z"/>
	</g>
	<g>
		<path d="M 38.70000076293945 160 L 44.70000076293945 157.10000610351562 L 45.599998474121094 150.60000610351562 L 50.20000076293945 155.3000030517578 L 56.79999923706055 154.1999969482422 L 53.70000076293945 160 L 56.79999923706055 165.89999389648438 L 50.20000076293945 164.8000030517578 L 45.599998474121094 169.5 L 44.70000076293945 163 Z"/>
	</g>
	<g>
		<path d="M 38.70000076293945 136.5 L 44.70000076293945 133.60000610351562 L 45.599998474121094 127 L 50.20000076293945 131.8000030517578 L 56.79999923706055 130.60000610351562 L 53.70000076293945 136.5 L 56.79999923706055 142.3000030517578 L 50.20000076293945 141.1999969482422 L 45.599998474121094 145.89999389648438 L 44.70000076293945 139.39999389648438 Z"/>
	</g>
	<g>
		<path d="M 38.70000076293945 112.9000015258789 L 44.70000076293945 110 L 45.599998474121094 103.5 L 50.20000076293945 108.19999694824219 L 56.79999923706055 107.0999984741211 L 53.70000076293945 112.9000015258789 L 56.79999923706055 118.69999694824219 L 50.20000076293945 117.5999984741211 L 45.599998474121094 122.30000305175781 L 44.70000076293945 115.80000305175781 Z"/>
	</g>
	<g>
		<path d="M 38.70000076293945 89.30000305175781 L 44.70000076293945 86.4000015258789 L 45.599998474121094 79.9000015258789 L 50.20000076293945 84.5999984741211 L 56.79999923706055 83.5 L 53.70000076293945 89.30000305175781 L 56.79999923706055 95.19999694824219 L 50.20000076293945 94.0999984741211 L 45.599998474121094 98.80000305175781 L 44.70000076293945 92.30000305175781 Z"/>
	</g>
	<g>
		<path d="M 38.70000076293945 65.80000305175781 L 44.70000076293945 62.900001525878906 L 45.599998474121094 56.29999923706055 L 50.20000076293945 61.099998474121094 L 56.79999923706055 59.900001525878906 L 53.70000076293945 65.80000305175781 L 56.79999923706055 71.5999984741211 L 50.20000076293945 70.5 L 45.599998474121094 75.19999694824219 L 44.70000076293945 68.69999694824219 Z"/>
	</g>
	<g>
		<path d="M 70.9000015258789 33.599998474121094 L 73.9000015258789 39.5 L 80.4000015258789 40.5 L 75.69999694824219 45.099998474121094 L 76.80000305175781 51.599998474121094 L 70.9000015258789 48.5 L 65.0999984741211 51.599998474121094 L 66.19999694824219 45.099998474121094 L 61.5 40.5 L 68 39.5 Z"/>
	</g>
	<g>
		<path d="M 94.5999984741211 33.599998474121094 L 97.5 39.5 L 104 40.5 L 99.30000305175781 45.099998474121094 L 100.4000015258789 51.599998474121094 L 94.5999984741211 48.5 L 88.69999694824219 51.599998474121094 L 89.80000305175781 45.099998474121094 L 85.0999984741211 40.5 L 91.5999984741211 39.5 Z"/>
	</g>
	<g>
		<path d="M 118.19999694824219 33.599998474121094 L 121.0999984741211 39.5 L 127.5999984741211 40.5 L 122.9000015258789 45.099998474121094 L 124 51.599998474121094 L 118.19999694824219 48.5 L 112.4000015258789 51.599998474121094 L 113.5 45.099998474121094 L 108.69999694824219 40.5 L 115.30000305175781 39.5 Z"/>
	</g>
	<g>
		<path d="M 141.8000030517578 33.599998474121094 L 144.6999969482422 39.5 L 151.3000030517578 40.5 L 146.5 45.099998474121094 L 147.60000610351562 51.599998474121094 L 141.8000030517578 48.5 L 136 51.599998474121094 L 137.10000610351562 45.099998474121094 L 132.39999389648438 40.5 L 138.89999389648438 39.5 Z"/>
	</g>
	<g>
		<path d="M 165.39999389648438 33.599998474121094 L 168.39999389648438 39.5 L 174.89999389648438 40.5 L 170.1999969482422 45.099998474121094 L 171.3000030517578 51.599998474121094 L 165.39999389648438 48.5 L 159.60000610351562 51.599998474121094 L 160.6999969482422 45.099998474121094 L 156 40.5 L 162.5 39.5 Z"/>
	</g>
	<g>
		<path d="M 189.10000610351562 33.599998474121094 L 192 39.5 L 198.5 40.5 L 193.8000030517578 45.099998474121094 L 194.89999389648438 51.599998474121094 L 189.10000610351562 48.5 L 183.1999969482422 51.599998474121094 L 184.3000030517578 45.099998474121094 L 179.60000610351562 40.5 L 186.10000610351562 39.5 Z"/>
	</g>
	<g>
		<path d="M 212.6999969482422 33.599998474121094 L 215.60000610351562 39.5 L 222.10000610351562 40.5 L 217.39999389648438 45.099998474121094 L 218.5 51.599998474121094 L 212.6999969482422 48.5 L 206.8000030517578 51.599998474121094 L 207.89999389648438 45.099998474121094 L 203.1999969482422 40.5 L 209.8000030517578 39.5 Z"/>
	</g>
	<g>
		<path d="M 236.3000030517578 33.599998474121094 L 239.1999969482422 39.5 L 245.6999969482422 40.5 L 241 45.099998474121094 L 242.10000610351562 51.599998474121094 L 236.3000030517578 48.5 L 230.5 51.599998474121094 L 231.60000610351562 45.099998474121094 L 226.8000030517578 40.5 L 233.39999389648438 39.5 Z"/>
	</g>
	<g>
		<path d="M 259.8999938964844 33.599998474121094 L 262.79998779296875 39.5 L 269.3999938964844 40.5 L 264.6000061035156 45.099998474121094 L 265.79998779296875 51.599998474121094 L 259.8999938964844 48.5 L 254.10000610351562 51.599998474121094 L 255.1999969482422 45.099998474121094 L 250.5 40.5 L 257 39.5 Z"/>
	</g>
	<g>
		<path d="M 283.5 33.599998474121094 L 286.5 39.5 L 293 40.5 L 288.29998779296875 45.099998474121094 L 289.3999938964844 51.599998474121094 L 283.5 48.5 L 277.70001220703125 51.599998474121094 L 278.79998779296875 45.099998474121094 L 274.1000061035156 40.5 L 280.6000061035156 39.5 Z"/>
	</g>
	<g>
		<path d="M 307.20001220703125 33.599998474121094 L 310.1000061035156 39.5 L 316.6000061035156 40.5 L 311.8999938964844 45.099998474121094 L 313 51.599998474121094 L 307.20001220703125 48.5 L 301.29998779296875 51.599998474121094 L 302.3999938964844 45.099998474121094 L 297.70001220703125 40.5 L 304.20001220703125 39.5 Z"/>
	</g>
	<g>
		<path d="M 330.79998779296875 33.599998474121094 L 333.70001220703125 39.5 L 340.20001220703125 40.5 L 335.5 45.099998474121094 L 336.6000061035156 51.599998474121094 L 330.79998779296875 48.5 L 324.8999938964844 51.599998474121094 L 326 45.099998474121094 L 321.29998779296875 40.5 L 327.8999938964844 39.5 Z"/>
	</g>
	<g>
		<path d="M 354.3999938964844 33.599998474121094 L 357.29998779296875 39.5 L 363.79998779296875 40.5 L 359.1000061035156 45.099998474121094 L 360.20001220703125 51.599998474121094 L 354.3999938964844 48.5 L 348.6000061035156 51.599998474121094 L 349.70001220703125 45.099998474121094 L 344.8999938964844 40.5 L 351.5 39.5 Z"/>
	</g>
	<g>
		<path d="M 378 33.599998474121094 L 380.8999938964844 39.5 L 387.5 40.5 L 382.70001220703125 45.099998474121094 L 383.8999938964844 51.599998474121094 L 378 48.5 L 372.20001220703125 51.599998474121094 L 373.29998779296875 45.099998474121094 L 368.6000061035156 40.5 L 375.1000061035156 39.5 Z"/>
	</g>
	<g>
		<path d="M 401.6000061035156 33.599998474121094 L 404.6000061035156 39.5 L 411.1000061035156 40.5 L 406.3999938964844 45.099998474121094 L 407.5 51.599998474121094 L 401.6000061035156 48.5 L 395.79998779296875 51.599998474121094 L 396.8999938964844 45.099998474121094 L 392.20001220703125 40.5 L 398.70001220703125 39.5 Z"/>
	</g>
	<g>
		<path d="M 425.29998779296875 33.599998474121094 L 428.20001220703125 39.5 L 434.70001220703125 40.5 L 430 45.099998474121094 L 431.1000061035156 51.599998474121094 L 425.29998779296875 48.5 L 419.3999938964844 51.599998474121094 L 420.5 45.099998474121094 L 415.79998779296875 40.5 L 422.29998779296875 39.5 Z"/>
	</g>
	<g>
		<path d="M 448.8999938964844 33.599998474121094 L 451.79998779296875 39.5 L 458.29998779296875 40.5 L 453.6000061035156 45.099998474121094 L 454.70001220703125 51.599998474121094 L 448.8999938964844 48.5 L 443 51.599998474121094 L 444.20001220703125 45.099998474121094 L 439.3999938964844 40.5 L 446 39.5 Z"/>
	</g>
	<g>
		<path d="M 472.5 33.599998474121094 L 475.3999938964844 39.5 L 481.8999938964844 40.5 L 477.20001220703125 45.099998474121094 L 478.29998779296875 51.599998474121094 L 472.5 48.5 L 466.70001220703125 51.599998474121094 L 467.79998779296875 45.099998474121094 L 463 40.5 L 469.6000061035156 39.5 Z"/>
	</g>
	<g>
		<path d="M 496.1000061035156 33.599998474121094 L 499 39.5 L 505.6000061035156 40.5 L 500.79998779296875 45.099998474121094 L 502 51.599998474121094 L 496.1000061035156 48.5 L 490.29998779296875 51.599998474121094 L 491.3999938964844 45.099998474121094 L 486.70001220703125 40.5 L 493.20001220703125 39.5 Z"/>
	</g>
	<g>
		<path d="M 519.7000122070312 33.599998474121094 L 522.7000122070312 39.5 L 529.2000122070312 40.5 L 524.5 45.099998474121094 L 525.5999755859375 51.599998474121094 L 519.7000122070312 48.5 L 513.9000244140625 51.599998474121094 L 515 45.099998474121094 L 510.29998779296875 40.5 L 516.7999877929688 39.5 Z"/>
	</g>
	<g>
		<path d="M 543.4000244140625 33.599998474121094 L 546.2999877929688 39.5 L 552.7999877929688 40.5 L 548.0999755859375 45.099998474121094 L 549.2000122070312 51.599998474121094 L 543.4000244140625 48.5 L 537.5 51.599998474121094 L 538.5999755859375 45.099998474121094 L 533.9000244140625 40.5 L 540.4000244140625 39.5 Z"/>
	</g>
	<g>
		<path d="M 567 33.599998474121094 L 569.9000244140625 39.5 L 576.4000244140625 40.5 L 571.7000122070312 45.099998474121094 L 572.7999877929688 51.599998474121094 L 567 48.5 L 561.0999755859375 51.599998474121094 L 562.2999877929688 45.099998474121094 L 557.5 40.5 L 564.0999755859375 39.5 Z"/>
	</g>
	<g>
		<path d="M 590.5999755859375 33.599998474121094 L 593.5 39.5 L 600 40.5 L 595.2999877929688 45.099998474121094 L 596.4000244140625 51.599998474121094 L 590.5999755859375 48.5 L 584.7999877929688 51.599998474121094 L 585.9000244140625 45.099998474121094 L 581.2000122070312 40.5 L 587.7000122070312 39.5 Z"/>
	</g>
	<g>
		<path d="M 614.2000122070312 33.599998474121094 L 617.0999755859375 39.5 L 623.7000122070312 40.5 L 618.9000244140625 45.099998474121094 L 620.0999755859375 51.599998474121094 L 614.2000122070312 48.5 L 608.4000244140625 51.599998474121094 L 609.5 45.099998474121094 L 604.7999877929688 40.5 L 611.2999877929688 39.5 Z"/>
	</g>
	<g>
		<path d="M 637.7999877929688 33.599998474121094 L 640.7999877929688 39.5 L 647.2999877929688 40.5 L 642.5999755859375 45.099998474121094 L 643.7000122070312 51.599998474121094 L 637.7999877929688 48.5 L 632 51.599998474121094 L 633.0999755859375 45.099998474121094 L 628.4000244140625 40.5 L 634.9000244140625 39.5 Z"/>
	</g>
	<g>
		<path d="M 661.5 33.599998474121094 L 664.4000244140625 39.5 L 670.9000244140625 40.5 L 666.2000122070312 45.099998474121094 L 667.2999877929688 51.599998474121094 L 661.5 48.5 L 655.5999755859375 51.599998474121094 L 656.7000122070312 45.099998474121094 L 652 40.5 L 658.5 39.5 Z"/>
	</g>
	<g>
		<path d="M 685.0999755859375 33.599998474121094 L 688 39.5 L 694.5 40.5 L 689.7999877929688 45.099998474121094 L 690.9000244140625 51.599998474121094 L 685.0999755859375 48.5 L 679.2000122070312 51.599998474121094 L 680.4000244140625 45.099998474121094 L 675.5999755859375 40.5 L 682.2000122070312 39.5 Z"/>
	</g>
	<g>
		<path d="M 708.7000122070312 33.599998474121094 L 711.5999755859375 39.5 L 718.0999755859375 40.5 L 713.4000244140625 45.099998474121094 L 714.5 51.599998474121094 L 708.7000122070312 48.5 L 702.9000244140625 51.599998474121094 L 704 45.099998474121094 L 699.2999877929688 40.5 L 705.7999877929688 39.5 Z"/>
	</g>
	<g>
		<path d="M 732.2999877929688 33.599998474121094 L 735.2000122070312 39.5 L 741.7999877929688 40.5 L 737 45.099998474121094 L 738.2000122070312 51.599998474121094 L 732.2999877929688 48.5 L 726.5 51.599998474121094 L 727.5999755859375 45.099998474121094 L 722.9000244140625 40.5 L 729.4000244140625 39.5 Z"/>
	</g>
	<g>
		<path d="M 755.9000244140625 33.599998474121094 L 758.9000244140625 39.5 L 765.4000244140625 40.5 L 760.7000122070312 45.099998474121094 L 761.7999877929688 51.599998474121094 L 755.9000244140625 48.5 L 750.0999755859375 51.599998474121094 L 751.2000122070312 45.099998474121094 L 746.5 40.5 L 753 39.5 Z"/>
	</g>
	<g>
		<path d="M 779.5999755859375 33.599998474121094 L 782.5 39.5 L 789 40.5 L 784.2999877929688 45.099998474121094 L 785.4000244140625 51.599998474121094 L 779.5999755859375 48.5 L 773.7000122070312 51.599998474121094 L 774.7999877929688 45.099998474121094 L 770.0999755859375 40.5 L 776.5999755859375 39.5 Z"/>
	</g>
	<g>
		<path d="M 803.2000122070312 33.599998474121094 L 806.0999755859375 39.5 L 812.5999755859375 40.5 L 807.9000244140625 45.099998474121094 L 809 51.599998474121094 L 803.2000122070312 48.5 L 797.2999877929688 51.599998474121094 L 798.5 45.099998474121094 L 793.7000122070312 40.5 L 800.2999877929688 39.5 Z"/>
	</g>
	<g>
		<path d="M 826.7999877929688 33.599998474121094 L 829.7000122070312 39.5 L 836.2999877929688 40.5 L 831.5 45.099998474121094 L 832.5999755859375 51.599998474121094 L 826.7999877929688 48.5 L 821 51.599998474121094 L 822.0999755859375 45.099998474121094 L 817.4000244140625 40.5 L 823.9000244140625 39.5 Z"/>
	</g>
	<g>
		<path d="M 850.4000244140625 33.599998474121094 L 853.2999877929688 39.5 L 859.9000244140625 40.5 L 855.0999755859375 45.099998474121094 L 856.2999877929688 51.599998474121094 L 850.4000244140625 48.5 L 844.5999755859375 51.599998474121094 L 845.7000122070312 45.099998474121094 L 841 40.5 L 847.5 39.5 Z"/>
	</g>
	<g>
		<path d="M 874 33.599998474121094 L 877 39.5 L 883.5 40.5 L 878.7999877929688 45.099998474121094 L 879.9000244140625 51.599998474121094 L 874 48.5 L 868.2000122070312 51.599998474121094 L 869.2999877929688 45.099998474121094 L 864.5999755859375 40.5 L 871.0999755859375 39.5 Z"/>
	</g>
	<g>
		<path d="M 897.7000122070312 33.599998474121094 L 900.5999755859375 39.5 L 907.0999755859375 40.5 L 902.4000244140625 45.099998474121094 L 903.5 51.599998474121094 L 897.7000122070312 48.5 L 891.7999877929688 51.599998474121094 L 892.9000244140625 45.099998474121094 L 888.2000122070312 40.5 L 894.7000122070312 39.5 Z"/>
	</g>
	<g>
		<path d="M 921.2999877929688 33.599998474121094 L 924.2000122070312 39.5 L 930.7000122070312 40.5 L 926 45.099998474121094 L 927.0999755859375 51.599998474121094 L 921.2999877929688 48.5 L 915.4000244140625 51.599998474121094 L 916.5999755859375 45.099998474121094 L 911.7999877929688 40.5 L 918.4000244140625 39.5 Z"/>
	</g>
	<g>
		<path d="M 944.9000244140625 33.599998474121094 L 947.7999877929688 39.5 L 954.4000244140625 40.5 L 949.5999755859375 45.099998474121094 L 950.7000122070312 51.599998474121094 L 944.9000244140625 48.5 L 939.0999755859375 51.599998474121094 L 940.2000122070312 45.099998474121094 L 935.5 40.5 L 942 39.5 Z"/>
	</g>
	<g>
		<path d="M 968.5 33.599998474121094 L 971.4000244140625 39.5 L 978 40.5 L 973.2000122070312 45.099998474121094 L 974.4000244140625 51.599998474121094 L 968.5 48.5 L 962.7000122070312 51.599998474121094 L 963.7999877929688 45.099998474121094 L 959.0999755859375 40.5 L 965.5999755859375 39.5 Z"/>
	</g>
	<g>
		<path d="M 992.0999755859375 33.599998474121094 L 995.0999755859375 39.5 L 1001.5999755859375 40.5 L 996.9000244140625 45.099998474121094 L 998 51.599998474121094 L 992.0999755859375 48.5 L 986.2999877929688 51.599998474121094 L 987.4000244140625 45.099998474121094 L 982.7000122070312 40.5 L 989.2000122070312 39.5 Z"/>
	</g>
	<g>
		<path d="M 1015.7999877929688 33.599998474121094 L 1018.7000122070312 39.5 L 1025.199951171875 40.5 L 1020.5 45.099998474121094 L 1021.5999755859375 51.599998474121094 L 1015.7999877929688 48.5 L 1009.9000244140625 51.599998474121094 L 1011 45.099998474121094 L 1006.2999877929688 40.5 L 1012.7999877929688 39.5 Z"/>
	</g>
	<g>
		<path d="M 1039.4000244140625 33.599998474121094 L 1042.300048828125 39.5 L 1048.800048828125 40.5 L 1044.0999755859375 45.099998474121094 L 1045.199951171875 51.599998474121094 L 1039.4000244140625 48.5 L 1033.5 51.599998474121094 L 1034.699951171875 45.099998474121094 L 1029.9000244140625 40.5 L 1036.5 39.5 Z"/>
	</g>
	<g>
		<path d="M 1063 33.599998474121094 L 1065.9000244140625 39.5 L 1072.5 40.5 L 1067.699951171875 45.099998474121094 L 1068.800048828125 51.599998474121094 L 1063 48.5 L 1057.199951171875 51.599998474121094 L 1058.300048828125 45.099998474121094 L 1053.5999755859375 40.5 L 1060.0999755859375 39.5 Z"/>
	</g>
	<g>
		<path d="M 1086.5999755859375 33.599998474121094 L 1089.5 39.5 L 1096.0999755859375 40.5 L 1091.4000244140625 45.099998474121094 L 1092.5 51.599998474121094 L 1086.5999755859375 48.5 L 1080.800048828125 51.599998474121094 L 1081.9000244140625 45.099998474121094 L 1077.199951171875 40.5 L 1083.699951171875 39.5 Z"/>
	</g>
	<g>
		<path d="M 1110.199951171875 33.599998474121094 L 1113.199951171875 39.5 L 1119.699951171875 40.5 L 1115 45.099998474121094 L 1116.0999755859375 51.599998474121094 L 1110.199951171875 48.5 L 1104.4000244140625 51.599998474121094 L 1105.5 45.099998474121094 L 1100.800048828125 40.5 L 1107.300048828125 39.5 Z"/>
	</g>
	<g>
		<path d="M 1133.9000244140625 33.599998474121094 L 1136.800048828125 39.5 L 1143.300048828125 40.5 L 1138.5999755859375 45.099998474121094 L 1139.699951171875 51.599998474121094 L 1133.9000244140625 48.5 L 1128 51.599998474121094 L 1129.0999755859375 45.099998474121094 L 1124.4000244140625 40.5 L 1131 39.5 Z"/>
	</g>
	<g>
		<path d="M 1157.5 33.599998474121094 L 1160.4000244140625 39.5 L 1166.9000244140625 40.5 L 1162.199951171875 45.099998474121094 L 1163.300048828125 51.599998474121094 L 1157.5 48.5 L 1151.699951171875 51.599998474121094 L 1152.800048828125 45.099998474121094 L 1148 40.5 L 1154.5999755859375 39.5 Z"/>
	</g>
	<g>
		<path d="M 1181.0999755859375 33.599998474121094 L 1184 39.5 L 1190.5999755859375 40.5 L 1185.800048828125 45.099998474121094 L 1186.9000244140625 51.599998474121094 L 1181.0999755859375 48.5 L 1175.300048828125 51.599998474121094 L 1176.4000244140625 45.099998474121094 L 1171.699951171875 40.5 L 1178.199951171875 39.5 Z"/>
	</g>
	<g>
		<path d="M 1204.699951171875 33.599998474121094 L 1207.699951171875 39.5 L 1214.199951171875 40.5 L 1209.5 45.099998474121094 L 1210.5999755859375 51.599998474121094 L 1204.699951171875 48.5 L 1198.9000244140625 51.599998474121094 L 1200 45.099998474121094 L 1195.300048828125 40.5 L 1201.800048828125 39.5 Z"/>
	</g>
	<g>
		<path d="M 1228.4000244140625 33.599998474121094 L 1231.300048828125 39.5 L 1237.800048828125 40.5 L 1233.0999755859375 45.099998474121094 L 1234.199951171875 51.599998474121094 L 1228.4000244140625 48.5 L 1222.5 51.599998474121094 L 1223.5999755859375 45.099998474121094 L 1218.9000244140625 40.5 L 1225.4000244140625 39.5 Z"/>
	</g>
	<g>
		<path d="M 1252 33.599998474121094 L 1254.9000244140625 39.5 L 1261.4000244140625 40.5 L 1256.699951171875 45.099998474121094 L 1257.800048828125 51.599998474121094 L 1252 48.5 L 1246.0999755859375 51.599998474121094 L 1247.199951171875 45.099998474121094 L 1242.5 40.5 L 1249 39.5 Z"/>
	</g>
	<g>
		<path d="M 1275.5999755859375 33.599998474121094 L 1278.5 39.5 L 1285 40.5 L 1280.300048828125 45.099998474121094 L 1281.4000244140625 51.599998474121094 L 1275.5999755859375 48.5 L 1269.800048828125 51.599998474121094 L 1270.9000244140625 45.099998474121094 L 1266.0999755859375 40.5 L 1272.699951171875 39.5 Z"/>
	</g>
	<g>
		<path d="M 1299.199951171875 33.599998474121094 L 1302.0999755859375 39.5 L 1308.699951171875 40.5 L 1303.9000244140625 45.099998474121094 L 1305.0999755859375 51.599998474121094 L 1299.199951171875 48.5 L 1293.4000244140625 51.599998474121094 L 1294.5 45.099998474121094 L 1289.800048828125 40.5 L 1296.300048828125 39.5 Z"/>
	</g>
	<g>
		<path d="M 1322.800048828125 33.599998474121094 L 1325.800048828125 39.5 L 1332.300048828125 40.5 L 1327.5999755859375 45.099998474121094 L 1328.699951171875 51.599998474121094 L 1322.800048828125 48.5 L 1317 51.599998474121094 L 1318.0999755859375 45.099998474121094 L 1313.4000244140625 40.5 L 1319.9000244140625 39.5 Z"/>
	</g>
	<g>
		<path d="M 1355.0999755859375 65.80000305175781 L 1349.0999755859375 68.69999694824219 L 1348.199951171875 75.19999694824219 L 1343.5 70.5 L 1337 71.5999984741211 L 1340.0999755859375 65.80000305175781 L 1337 59.900001525878906 L 1343.5 61.099998474121094 L 1348.199951171875 56.29999923706055 L 1349.0999755859375 62.900001525878906 Z"/>
	</g>
	<g>
		<path d="M 1355.0999755859375 89.30000305175781 L 1349.0999755859375 92.30000305175781 L 1348.199951171875 98.80000305175781 L 1343.5 94.0999984741211 L 1337 95.19999694824219 L 1340.0999755859375 89.30000305175781 L 1337 83.5 L 1343.5 84.5999984741211 L 1348.199951171875 79.9000015258789 L 1349.0999755859375 86.4000015258789 Z"/>
	</g>
	<g>
		<path d="M 1355.0999755859375 112.9000015258789 L 1349.0999755859375 115.80000305175781 L 1348.199951171875 122.30000305175781 L 1343.5 117.5999984741211 L 1337 118.69999694824219 L 1340.0999755859375 112.9000015258789 L 1337 107.0999984741211 L 1343.5 108.19999694824219 L 1348.199951171875 103.5 L 1349.0999755859375 110 Z"/>
	</g>
	<g>
		<path d="M 1355.0999755859375 136.5 L 1349.0999755859375 139.39999389648438 L 1348.199951171875 145.89999389648438 L 1343.5 141.1999969482422 L 1337 142.3000030517578 L 1340.0999755859375 136.5 L 1337 130.60000610351562 L 1343.5 131.8000030517578 L 1348.199951171875 127 L 1349.0999755859375 133.60000610351562 Z"/>
	</g>
	<g>
		<path d="M 1355.0999755859375 160 L 1349.0999755859375 163 L 1348.199951171875 169.5 L 1343.5 164.8000030517578 L 1337 165.89999389648438 L 1340.0999755859375 160 L 1337 154.1999969482422 L 1343.5 155.3000030517578 L 1348.199951171875 150.60000610351562 L 1349.0999755859375 157.10000610351562 Z"/>
	</g>
	<g>
		<path d="M 1355.0999755859375 183.60000610351562 L 1349.0999755859375 186.5 L 1348.199951171875 193 L 1343.5 188.3000030517578 L 1337 189.39999389648438 L 1340.0999755859375 183.60000610351562 L 1337 177.8000030517578 L 1343.5 178.89999389648438 L 1348.199951171875 174.1999969482422 L 1349.0999755859375 180.6999969482422 Z"/>
	</g>
	<g>
		<path d="M 1355.0999755859375 207.1999969482422 L 1349.0999755859375 210.10000610351562 L 1348.199951171875 216.60000610351562 L 1343.5 211.89999389648438 L 1337 213 L 1340.0999755859375 207.1999969482422 L 1337 201.39999389648438 L 1343.5 202.5 L 1348.199951171875 197.8000030517578 L 1349.0999755859375 204.3000030517578 Z"/>
	</g>
	<g>
		<path d="M 1355.0999755859375 230.6999969482422 L 1349.0999755859375 233.6999969482422 L 1348.199951171875 240.1999969482422 L 1343.5 235.5 L 1337 236.60000610351562 L 1340.0999755859375 230.6999969482422 L 1337 224.89999389648438 L 1343.5 226 L 1348.199951171875 221.3000030517578 L 1349.0999755859375 227.8000030517578 Z"/>
	</g>
	<g>
		<path d="M 1355.0999755859375 254.3000030517578 L 1349.0999755859375 257.20001220703125 L 1348.199951171875 263.70001220703125 L 1343.5 259 L 1337 260.1000061035156 L 1340.0999755859375 254.3000030517578 L 1337 248.5 L 1343.5 249.60000610351562 L 1348.199951171875 244.89999389648438 L 1349.0999755859375 251.39999389648438 Z"/>
	</g>
	<g>
		<path d="M 1355.0999755859375 277.8999938964844 L 1349.0999755859375 280.79998779296875 L 1348.199951171875 287.29998779296875 L 1343.5 282.6000061035156 L 1337 283.70001220703125 L 1340.0999755859375 277.8999938964844 L 1337 272.1000061035156 L 1343.5 273.20001220703125 L 1348.199951171875 268.5 L 1349.0999755859375 275 Z"/>
	</g>
	<g>
		<path d="M 1355.0999755859375 301.3999938964844 L 1349.0999755859375 304.3999938964844 L 1348.199951171875 310.8999938964844 L 1343.5 306.20001220703125 L 1337 307.29998779296875 L 1340.0999755859375 301.3999938964844 L 1337 295.6000061035156 L 1343.5 296.70001220703125 L 1348.199951171875 292 L 1349.0999755859375 298.5 Z"/>
	</g>
	<g>
		<path d="M 1355.0999755859375 325 L 1349.0999755859375 327.8999938964844 L 1348.199951171875 334.3999938964844 L 1343.5 329.70001220703125 L 1337 330.79998779296875 L 1340.0999755859375 325 L 1337 319.20001220703125 L 1343.5 320.29998779296875 L 1348.199951171875 315.6000061035156 L 1349.0999755859375 322.1000061035156 Z"/>
	</g>
	<g>
		<path d="M 1355.0999755859375 348.6000061035156 L 1349.0999755859375 351.5 L 1348.199951171875 358 L 1343.5 353.29998779296875 L 1337 354.3999938964844 L 1340.0999755859375 348.6000061035156 L 1337 342.79998779296875 L 1343.5 343.8999938964844 L 1348.199951171875 339.20001220703125 L 1349.0999755859375 345.70001220703125 Z"/>
	</g>
	<g>
		<path d="M 1355.0999755859375 372.1000061035156 L 1349.0999755859375 375.1000061035156 L 1348.199951171875 381.6000061035156 L 1343.5 376.8999938964844 L 1337 378 L 1340.0999755859375 372.1000061035156 L 1337 366.29998779296875 L 1343.5 367.3999938964844 L 1348.199951171875 362.70001220703125 L 1349.0999755859375 369.20001220703125 Z"/>
	</g>
	<g>
		<path d="M 1355.0999755859375 395.70001220703125 L 1349.0999755859375 398.6000061035156 L 1348.199951171875 405.1000061035156 L 1343.5 400.3999938964844 L 1337 401.5 L 1340.0999755859375 395.70001220703125 L 1337 389.8999938964844 L 1343.5 391 L 1348.199951171875 386.29998779296875 L 1349.0999755859375 392.79998779296875 Z"/>
	</g>
	<g>
		<path d="M 1355.0999755859375 419.29998779296875 L 1349.0999755859375 422.20001220703125 L 1348.199951171875 428.70001220703125 L 1343.5 424 L 1337 425.1000061035156 L 1340.0999755859375 419.29998779296875 L 1337 413.5 L 1343.5 414.6000061035156 L 1348.199951171875 409.8999938964844 L 1349.0999755859375 416.3999938964844 Z"/>
	</g>
	<g>
		<path d="M 1355.0999755859375 442.8999938964844 L 1349.0999755859375 445.79998779296875 L 1348.199951171875 452.29998779296875 L 1343.5 447.6000061035156 L 1337 448.70001220703125 L 1340.0999755859375 442.8999938964844 L 1337 437 L 1343.5 438.1000061035156 L 1348.199951171875 433.3999938964844 L 1349.0999755859375 439.8999938964844 Z"/>
	</g>
	<g>
		<path d="M 1355.0999755859375 466.3999938964844 L 1349.0999755859375 469.29998779296875 L 1348.199951171875 475.79998779296875 L 1343.5 471.1000061035156 L 1337 472.20001220703125 L 1340.0999755859375 466.3999938964844 L 1337 460.6000061035156 L 1343.5 461.70001220703125 L 1348.199951171875 457 L 1349.0999755859375 463.5 Z"/>
	</g>
	<g>
		<path d="M 1355.0999755859375 490 L 1349.0999755859375 492.8999938964844 L 1348.199951171875 499.3999938964844 L 1343.5 494.70001220703125 L 1337 495.79998779296875 L 1340.0999755859375 490 L 1337 484.20001220703125 L 1343.5 485.29998779296875 L 1348.199951171875 480.6000061035156 L 1349.0999755859375 487.1000061035156 Z"/>
	</g>
	<g>
		<path d="M 1355.0999755859375 513.5999755859375 L 1349.0999755859375 516.5 L 1348.199951171875 523 L 1343.5 518.2999877929688 L 1337 519.4000244140625 L 1340.0999755859375 513.5999755859375 L 1337 507.70001220703125 L 1343.5 508.79998779296875 L 1348.199951171875 504.1000061035156 L 1349.0999755859375 510.6000061035156 Z"/>
	</g>
	<g>
		<path d="M 1355.0999755859375 537.0999755859375 L 1349.0999755859375 540 L 1348.199951171875 546.5 L 1343.5 541.7999877929688 L 1337 542.9000244140625 L 1340.0999755859375 537.0999755859375 L 1337 531.2999877929688 L 1343.5 532.4000244140625 L 1348.199951171875 527.7000122070312 L 1349.0999755859375 534.2000122070312 Z"/>
	</g>
	<g>
		<path d="M 1355.0999755859375 560.7000122070312 L 1349.0999755859375 563.5999755859375 L 1348.199951171875 570.0999755859375 L 1343.5 565.4000244140625 L 1337 566.5 L 1340.0999755859375 560.7000122070312 L 1337 554.9000244140625 L 1343.5 556 L 1348.199951171875 551.2999877929688 L 1349.0999755859375 557.7999877929688 Z"/>
	</g>
	<g>
		<path d="M 1355.0999755859375 584.2999877929688 L 1349.0999755859375 587.2000122070312 L 1348.199951171875 593.7000122070312 L 1343.5 589 L 1337 590.0999755859375 L 1340.0999755859375 584.2999877929688 L 1337 578.4000244140625 L 1343.5 579.5 L 1348.199951171875 574.7999877929688 L 1349.0999755859375 581.2999877929688 Z"/>
	</g>
	<g>
		<path d="M 1355.0999755859375 607.7999877929688 L 1349.0999755859375 610.7000122070312 L 1348.199951171875 617.2999877929688 L 1343.5 612.5 L 1337 613.5999755859375 L 1340.0999755859375 607.7999877929688 L 1337 602 L 1343.5 603.0999755859375 L 1348.199951171875 598.4000244140625 L 1349.0999755859375 604.9000244140625 Z"/>
	</g>
	<g>
		<path d="M 1355.0999755859375 631.4000244140625 L 1349.0999755859375 634.2999877929688 L 1348.199951171875 640.7999877929688 L 1343.5 636.0999755859375 L 1337 637.2000122070312 L 1340.0999755859375 631.4000244140625 L 1337 625.5999755859375 L 1343.5 626.7000122070312 L 1348.199951171875 622 L 1349.0999755859375 628.5 Z"/>
	</g>
	<g>
		<path d="M 1355.0999755859375 655 L 1349.0999755859375 657.9000244140625 L 1348.199951171875 664.4000244140625 L 1343.5 659.7000122070312 L 1337 660.7999877929688 L 1340.0999755859375 655 L 1337 649.0999755859375 L 1343.5 650.2000122070312 L 1348.199951171875 645.5 L 1349.0999755859375 652 Z"/>
	</g>
	<g>
		<path d="M 1355.0999755859375 678.5 L 1349.0999755859375 681.4000244140625 L 1348.199951171875 688 L 1343.5 683.2000122070312 L 1337 684.4000244140625 L 1340.0999755859375 678.5 L 1337 672.7000122070312 L 1343.5 673.7999877929688 L 1348.199951171875 669.0999755859375 L 1349.0999755859375 675.5999755859375 Z"/>
	</g>
	<g>
		<path d="M 1355.0999755859375 702.0999755859375 L 1349.0999755859375 705 L 1348.199951171875 711.5 L 1343.5 706.7999877929688 L 1337 707.9000244140625 L 1340.0999755859375 702.0999755859375 L 1337 696.2999877929688 L 1343.5 697.4000244140625 L 1348.199951171875 692.7000122070312 L 1349.0999755859375 699.2000122070312 Z"/>
	</g>
	<g>
		<path d="M 1355.0999755859375 725.7000122070312 L 1349.0999755859375 728.5999755859375 L 1348.199951171875 735.0999755859375 L 1343.5 730.4000244140625 L 1337 731.5 L 1340.0999755859375 725.7000122070312 L 1337 719.7999877929688 L 1343.5 720.9000244140625 L 1348.199951171875 716.2000122070312 L 1349.0999755859375 722.7000122070312 Z"/>
	</g>
	<g>
		<path d="M 1355.0999755859375 749.2000122070312 L 1349.0999755859375 752.0999755859375 L 1348.199951171875 758.7000122070312 L 1343.5 753.9000244140625 L 1337 755.0999755859375 L 1340.0999755859375 749.2000122070312 L 1337 743.4000244140625 L 1343.5 744.5 L 1348.199951171875 739.7999877929688 L 1349.0999755859375 746.2999877929688 Z"/>
	</g>
	<g>
		<path d="M 1355.0999755859375 772.7999877929688 L 1349.0999755859375 775.7000122070312 L 1348.199951171875 782.2000122070312 L 1343.5 777.5 L 1337 778.5999755859375 L 1340.0999755859375 772.7999877929688 L 1337 767 L 1343.5 768.0999755859375 L 1348.199951171875 763.4000244140625 L 1349.0999755859375 769.9000244140625 Z"/>
	</g>
	<g>
		<path d="M 1355.0999755859375 796.4000244140625 L 1349.0999755859375 799.2999877929688 L 1348.199951171875 805.7999877929688 L 1343.5 801.0999755859375 L 1337 802.2000122070312 L 1340.0999755859375 796.4000244140625 L 1337 790.5 L 1343.5 791.5999755859375 L 1348.199951171875 786.9000244140625 L 1349.0999755859375 793.4000244140625 Z"/>
	</g>
	<g>
		<path d="M 1355.0999755859375 819.9000244140625 L 1349.0999755859375 822.7999877929688 L 1348.199951171875 829.4000244140625 L 1343.5 824.5999755859375 L 1337 825.7999877929688 L 1340.0999755859375 819.9000244140625 L 1337 814.0999755859375 L 1343.5 815.2000122070312 L 1348.199951171875 810.5 L 1349.0999755859375 817 Z"/>
	</g>
	<g>
		<path d="M 1355.0999755859375 843.5 L 1349.0999755859375 846.4000244140625 L 1348.199951171875 852.9000244140625 L 1343.5 848.2000122070312 L 1337 849.2999877929688 L 1340.0999755859375 843.5 L 1337 837.7000122070312 L 1343.5 838.7999877929688 L 1348.199951171875 834.0999755859375 L 1349.0999755859375 840.5999755859375 Z"/>
	</g>
	<g>
		<path d="M 1355.0999755859375 867.0999755859375 L 1349.0999755859375 870 L 1348.199951171875 876.5 L 1343.5 871.7999877929688 L 1337 872.9000244140625 L 1340.0999755859375 867.0999755859375 L 1337 861.2000122070312 L 1343.5 862.4000244140625 L 1348.199951171875 857.5999755859375 L 1349.0999755859375 864.2000122070312 Z"/>
	</g>
	<g>
		<path d="M 1355.0999755859375 890.5999755859375 L 1349.0999755859375 893.5 L 1348.199951171875 900.0999755859375 L 1343.5 895.2999877929688 L 1337 896.5 L 1340.0999755859375 890.5999755859375 L 1337 884.7999877929688 L 1343.5 885.9000244140625 L 1348.199951171875 881.2000122070312 L 1349.0999755859375 887.7000122070312 Z"/>
	</g>
	<g>
		<path d="M 1355.0999755859375 914.2000122070312 L 1349.0999755859375 917.0999755859375 L 1348.199951171875 923.5999755859375 L 1343.5 918.9000244140625 L 1337 920 L 1340.0999755859375 914.2000122070312 L 1337 908.4000244140625 L 1343.5 909.5 L 1348.199951171875 904.7999877929688 L 1349.0999755859375 911.2999877929688 Z"/>
	</g>
	<g>
		<path d="M 1322.800048828125 946.4000244140625 L 1319.9000244140625 940.5 L 1313.4000244140625 939.5 L 1318.0999755859375 934.9000244140625 L 1317 928.2999877929688 L 1322.800048828125 931.4000244140625 L 1328.699951171875 928.2999877929688 L 1327.5999755859375 934.9000244140625 L 1332.300048828125 939.5 L 1325.800048828125 940.5 Z"/>
	</g>
	<g>
		<path d="M 1299.199951171875 946.4000244140625 L 1296.300048828125 940.5 L 1289.800048828125 939.5 L 1294.5 934.9000244140625 L 1293.4000244140625 928.2999877929688 L 1299.199951171875 931.4000244140625 L 1305.0999755859375 928.2999877929688 L 1303.9000244140625 934.9000244140625 L 1308.699951171875 939.5 L 1302.0999755859375 940.5 Z"/>
	</g>
	<g>
		<path d="M 1275.5999755859375 946.4000244140625 L 1272.699951171875 940.5 L 1266.0999755859375 939.5 L 1270.9000244140625 934.9000244140625 L 1269.800048828125 928.2999877929688 L 1275.5999755859375 931.4000244140625 L 1281.4000244140625 928.2999877929688 L 1280.300048828125 934.9000244140625 L 1285 939.5 L 1278.5 940.5 Z"/>
	</g>
	<g>
		<path d="M 1252 946.4000244140625 L 1249.0999755859375 940.5 L 1242.5 939.5 L 1247.199951171875 934.9000244140625 L 1246.0999755859375 928.2999877929688 L 1252 931.4000244140625 L 1257.800048828125 928.2999877929688 L 1256.699951171875 934.9000244140625 L 1261.4000244140625 939.5 L 1254.9000244140625 940.5 Z"/>
	</g>
	<g>
		<path d="M 1228.4000244140625 946.4000244140625 L 1225.4000244140625 940.5 L 1218.9000244140625 939.5 L 1223.5999755859375 934.9000244140625 L 1222.5 928.2999877929688 L 1228.4000244140625 931.4000244140625 L 1234.199951171875 928.2999877929688 L 1233.0999755859375 934.9000244140625 L 1237.800048828125 939.5 L 1231.300048828125 940.5 Z"/>
	</g>
	<g>
		<path d="M 1204.699951171875 946.4000244140625 L 1201.800048828125 940.5 L 1195.300048828125 939.5 L 1200 934.9000244140625 L 1198.9000244140625 928.2999877929688 L 1204.699951171875 931.4000244140625 L 1210.5999755859375 928.2999877929688 L 1209.5 934.9000244140625 L 1214.199951171875 939.5 L 1207.699951171875 940.5 Z"/>
	</g>
	<g>
		<path d="M 1181.0999755859375 946.4000244140625 L 1178.199951171875 940.5 L 1171.699951171875 939.5 L 1176.4000244140625 934.9000244140625 L 1175.300048828125 928.2999877929688 L 1181.0999755859375 931.4000244140625 L 1186.9000244140625 928.2999877929688 L 1185.800048828125 934.9000244140625 L 1190.5999755859375 939.5 L 1184 940.5 Z"/>
	</g>
	<g>
		<path d="M 1157.5 946.4000244140625 L 1154.5999755859375 940.5 L 1148 939.5 L 1152.800048828125 934.9000244140625 L 1151.699951171875 928.2999877929688 L 1157.5 931.4000244140625 L 1163.300048828125 928.2999877929688 L 1162.199951171875 934.9000244140625 L 1166.9000244140625 939.5 L 1160.4000244140625 940.5 Z"/>
	</g>
	<g>
		<path d="M 1133.9000244140625 946.4000244140625 L 1131 940.5 L 1124.4000244140625 939.5 L 1129.0999755859375 934.9000244140625 L 1128 928.2999877929688 L 1133.9000244140625 931.4000244140625 L 1139.699951171875 928.2999877929688 L 1138.5999755859375 934.9000244140625 L 1143.300048828125 939.5 L 1136.800048828125 940.5 Z"/>
	</g>
	<g>
		<path d="M 1110.199951171875 946.4000244140625 L 1107.300048828125 940.5 L 1100.800048828125 939.5 L 1105.5 934.9000244140625 L 1104.4000244140625 928.2999877929688 L 1110.199951171875 931.4000244140625 L 1116.0999755859375 928.2999877929688 L 1115 934.9000244140625 L 1119.699951171875 939.5 L 1113.199951171875 940.5 Z"/>
	</g>
	<g>
		<path d="M 1086.5999755859375 946.4000244140625 L 1083.699951171875 940.5 L 1077.199951171875 939.5 L 1081.9000244140625 934.9000244140625 L 1080.800048828125 928.2999877929688 L 1086.5999755859375 931.4000244140625 L 1092.5 928.2999877929688 L 1091.4000244140625 934.9000244140625 L 1096.0999755859375 939.5 L 1089.5 940.5 Z"/>
	</g>
	<g>
		<path d="M 1063 946.4000244140625 L 1060.0999755859375 940.5 L 1053.5999755859375 939.5 L 1058.300048828125 934.9000244140625 L 1057.199951171875 928.2999877929688 L 1063 931.4000244140625 L 1068.800048828125 928.2999877929688 L 1067.699951171875 934.9000244140625 L 1072.5 939.5 L 1065.9000244140625 940.5 Z"/>
	</g>
	<g>
		<path d="M 1039.4000244140625 946.4000244140625 L 1036.5 940.5 L 1029.9000244140625 939.5 L 1034.699951171875 934.9000244140625 L 1033.5 928.2999877929688 L 1039.4000244140625 931.4000244140625 L 1045.199951171875 928.2999877929688 L 1044.0999755859375 934.9000244140625 L 1048.800048828125 939.5 L 1042.300048828125 940.5 Z"/>
	</g>
	<g>
		<path d="M 1015.7999877929688 946.4000244140625 L 1012.7999877929688 940.5 L 1006.2999877929688 939.5 L 1011 934.9000244140625 L 1009.9000244140625 928.2999877929688 L 1015.7999877929688 931.4000244140625 L 1021.5999755859375 928.2999877929688 L 1020.5 934.9000244140625 L 1025.199951171875 939.5 L 1018.7000122070312 940.5 Z"/>
	</g>
	<g>
		<path d="M 992.0999755859375 946.4000244140625 L 989.2000122070312 940.5 L 982.7000122070312 939.5 L 987.4000244140625 934.9000244140625 L 986.2999877929688 928.2999877929688 L 992.0999755859375 931.4000244140625 L 998 928.2999877929688 L 996.9000244140625 934.9000244140625 L 1001.5999755859375 939.5 L 995.0999755859375 940.5 Z"/>
	</g>
	<g>
		<path d="M 968.5 946.4000244140625 L 965.5999755859375 940.5 L 959.0999755859375 939.5 L 963.7999877929688 934.9000244140625 L 962.7000122070312 928.2999877929688 L 968.5 931.4000244140625 L 974.4000244140625 928.2999877929688 L 973.2000122070312 934.9000244140625 L 978 939.5 L 971.4000244140625 940.5 Z"/>
	</g>
	<g>
		<path d="M 944.9000244140625 946.4000244140625 L 942 940.5 L 935.5 939.5 L 940.2000122070312 934.9000244140625 L 939.0999755859375 928.2999877929688 L 944.9000244140625 931.4000244140625 L 950.7000122070312 928.2999877929688 L 949.5999755859375 934.9000244140625 L 954.4000244140625 939.5 L 947.7999877929688 940.5 Z"/>
	</g>
	<g>
		<path d="M 921.2999877929688 946.4000244140625 L 918.4000244140625 940.5 L 911.7999877929688 939.5 L 916.5999755859375 934.9000244140625 L 915.4000244140625 928.2999877929688 L 921.2999877929688 931.4000244140625 L 927.0999755859375 928.2999877929688 L 926 934.9000244140625 L 930.7000122070312 939.5 L 924.2000122070312 940.5 Z"/>
	</g>
	<g>
		<path d="M 897.7000122070312 946.4000244140625 L 894.7000122070312 940.5 L 888.2000122070312 939.5 L 892.9000244140625 934.9000244140625 L 891.7999877929688 928.2999877929688 L 897.7000122070312 931.4000244140625 L 903.5 928.2999877929688 L 902.4000244140625 934.9000244140625 L 907.0999755859375 939.5 L 900.5999755859375 940.5 Z"/>
	</g>
	<g>
		<path d="M 874 946.4000244140625 L 871.0999755859375 940.5 L 864.5999755859375 939.5 L 869.2999877929688 934.9000244140625 L 868.2000122070312 928.2999877929688 L 874 931.4000244140625 L 879.9000244140625 928.2999877929688 L 878.7999877929688 934.9000244140625 L 883.5 939.5 L 877 940.5 Z"/>
	</g>
	<g>
		<path d="M 850.4000244140625 946.4000244140625 L 847.5 940.5 L 841 939.5 L 845.7000122070312 934.9000244140625 L 844.5999755859375 928.2999877929688 L 850.4000244140625 931.4000244140625 L 856.2999877929688 928.2999877929688 L 855.0999755859375 934.9000244140625 L 859.9000244140625 939.5 L 853.2999877929688 940.5 Z"/>
	</g>
	<g>
		<path d="M 826.7999877929688 946.4000244140625 L 823.9000244140625 940.5 L 817.4000244140625 939.5 L 822.0999755859375 934.9000244140625 L 821 928.2999877929688 L 826.7999877929688 931.4000244140625 L 832.5999755859375 928.2999877929688 L 831.5 934.9000244140625 L 836.2999877929688 939.5 L 829.7000122070312 940.5 Z"/>
	</g>
	<g>
		<path d="M 803.2000122070312 946.4000244140625 L 800.2999877929688 940.5 L 793.7000122070312 939.5 L 798.5 934.9000244140625 L 797.2999877929688 928.2999877929688 L 803.2000122070312 931.4000244140625 L 809 928.2999877929688 L 807.9000244140625 934.9000244140625 L 812.5999755859375 939.5 L 806.0999755859375 940.5 Z"/>
	</g>
	<g>
		<path d="M 779.5999755859375 946.4000244140625 L 776.5999755859375 940.5 L 770.0999755859375 939.5 L 774.7999877929688 934.9000244140625 L 773.7000122070312 928.2999877929688 L 779.5999755859375 931.4000244140625 L 785.4000244140625 928.2999877929688 L 784.2999877929688 934.9000244140625 L 789 939.5 L 782.5 940.5 Z"/>
	</g>
	<g>
		<path d="M 755.9000244140625 946.4000244140625 L 753 940.5 L 746.5 939.5 L 751.2000122070312 934.9000244140625 L 750.0999755859375 928.2999877929688 L 755.9000244140625 931.4000244140625 L 761.7999877929688 928.2999877929688 L 760.7000122070312 934.9000244140625 L 765.4000244140625 939.5 L 758.9000244140625 940.5 Z"/>
	</g>
	<g>
		<path d="M 732.2999877929688 946.4000244140625 L 729.4000244140625 940.5 L 722.9000244140625 939.5 L 727.5999755859375 934.9000244140625 L 726.5 928.2999877929688 L 732.2999877929688 931.4000244140625 L 738.2000122070312 928.2999877929688 L 737 934.9000244140625 L 741.7999877929688 939.5 L 735.2000122070312 940.5 Z"/>
	</g>
	<g>
		<path d="M 708.7000122070312 946.4000244140625 L 705.7999877929688 940.5 L 699.2999877929688 939.5 L 704 934.9000244140625 L 702.9000244140625 928.2999877929688 L 708.7000122070312 931.4000244140625 L 714.5 928.2999877929688 L 713.4000244140625 934.9000244140625 L 718.0999755859375 939.5 L 711.5999755859375 940.5 Z"/>
	</g>
	<g>
		<path d="M 685.0999755859375 946.4000244140625 L 682.2000122070312 940.5 L 675.5999755859375 939.5 L 680.4000244140625 934.9000244140625 L 679.2000122070312 928.2999877929688 L 685.0999755859375 931.4000244140625 L 690.9000244140625 928.2999877929688 L 689.7999877929688 934.9000244140625 L 694.5 939.5 L 688 940.5 Z"/>
	</g>
	<g>
		<path d="M 661.5 946.4000244140625 L 658.5 940.5 L 652 939.5 L 656.7000122070312 934.9000244140625 L 655.5999755859375 928.2999877929688 L 661.5 931.4000244140625 L 667.2999877929688 928.2999877929688 L 666.2000122070312 934.9000244140625 L 670.9000244140625 939.5 L 664.4000244140625 940.5 Z"/>
	</g>
	<g>
		<path d="M 637.7999877929688 946.4000244140625 L 634.9000244140625 940.5 L 628.4000244140625 939.5 L 633.0999755859375 934.9000244140625 L 632 928.2999877929688 L 637.7999877929688 931.4000244140625 L 643.7000122070312 928.2999877929688 L 642.5999755859375 934.9000244140625 L 647.2999877929688 939.5 L 640.7999877929688 940.5 Z"/>
	</g>
	<g>
		<path d="M 614.2000122070312 946.4000244140625 L 611.2999877929688 940.5 L 604.7999877929688 939.5 L 609.5 934.9000244140625 L 608.4000244140625 928.2999877929688 L 614.2000122070312 931.4000244140625 L 620.0999755859375 928.2999877929688 L 618.9000244140625 934.9000244140625 L 623.7000122070312 939.5 L 617.0999755859375 940.5 Z"/>
	</g>
	<g>
		<path d="M 590.5999755859375 946.4000244140625 L 587.7000122070312 940.5 L 581.2000122070312 939.5 L 585.9000244140625 934.9000244140625 L 584.7999877929688 928.2999877929688 L 590.5999755859375 931.4000244140625 L 596.4000244140625 928.2999877929688 L 595.2999877929688 934.9000244140625 L 600 939.5 L 593.5 940.5 Z"/>
	</g>
	<g>
		<path d="M 567 946.4000244140625 L 564.0999755859375 940.5 L 557.5 939.5 L 562.2999877929688 934.9000244140625 L 561.0999755859375 928.2999877929688 L 567 931.4000244140625 L 572.7999877929688 928.2999877929688 L 571.7000122070312 934.9000244140625 L 576.4000244140625 939.5 L 569.9000244140625 940.5 Z"/>
	</g>
	<g>
		<path d="M 543.4000244140625 946.4000244140625 L 540.4000244140625 940.5 L 533.9000244140625 939.5 L 538.5999755859375 934.9000244140625 L 537.5 928.2999877929688 L 543.4000244140625 931.4000244140625 L 549.2000122070312 928.2999877929688 L 548.0999755859375 934.9000244140625 L 552.7999877929688 939.5 L 546.2999877929688 940.5 Z"/>
	</g>
	<g>
		<path d="M 519.7000122070312 946.4000244140625 L 516.7999877929688 940.5 L 510.29998779296875 939.5 L 515 934.9000244140625 L 513.9000244140625 928.2999877929688 L 519.7000122070312 931.4000244140625 L 525.5999755859375 928.2999877929688 L 524.5 934.9000244140625 L 529.2000122070312 939.5 L 522.7000122070312 940.5 Z"/>
	</g>
	<g>
		<path d="M 496.1000061035156 946.4000244140625 L 493.20001220703125 940.5 L 486.70001220703125 939.5 L 491.3999938964844 934.9000244140625 L 490.29998779296875 928.2999877929688 L 496.1000061035156 931.4000244140625 L 502 928.2999877929688 L 500.79998779296875 934.9000244140625 L 505.6000061035156 939.5 L 499 940.5 Z"/>
	</g>
	<g>
		<path d="M 472.5 946.4000244140625 L 469.6000061035156 940.5 L 463 939.5 L 467.79998779296875 934.9000244140625 L 466.70001220703125 928.2999877929688 L 472.5 931.4000244140625 L 478.29998779296875 928.2999877929688 L 477.20001220703125 934.9000244140625 L 481.8999938964844 939.5 L 475.3999938964844 940.5 Z"/>
	</g>
	<g>
		<path d="M 448.8999938964844 946.4000244140625 L 446 940.5 L 439.3999938964844 939.5 L 444.20001220703125 934.9000244140625 L 443 928.2999877929688 L 448.8999938964844 931.4000244140625 L 454.70001220703125 928.2999877929688 L 453.6000061035156 934.9000244140625 L 458.29998779296875 939.5 L 451.79998779296875 940.5 Z"/>
	</g>
	<g>
		<path d="M 425.29998779296875 946.4000244140625 L 422.29998779296875 940.5 L 415.79998779296875 939.5 L 420.5 934.9000244140625 L 419.3999938964844 928.2999877929688 L 425.29998779296875 931.4000244140625 L 431.1000061035156 928.2999877929688 L 430 934.9000244140625 L 434.70001220703125 939.5 L 428.20001220703125 940.5 Z"/>
	</g>
	<g>
		<path d="M 401.6000061035156 946.4000244140625 L 398.70001220703125 940.5 L 392.20001220703125 939.5 L 396.8999938964844 934.9000244140625 L 395.79998779296875 928.2999877929688 L 401.6000061035156 931.4000244140625 L 407.5 928.2999877929688 L 406.3999938964844 934.9000244140625 L 411.1000061035156 939.5 L 404.6000061035156 940.5 Z"/>
	</g>
	<g>
		<path d="M 378 946.4000244140625 L 375.1000061035156 940.5 L 368.6000061035156 939.5 L 373.29998779296875 934.9000244140625 L 372.20001220703125 928.2999877929688 L 378 931.4000244140625 L 383.8999938964844 928.2999877929688 L 382.70001220703125 934.9000244140625 L 387.5 939.5 L 380.8999938964844 940.5 Z"/>
	</g>
	<g>
		<path d="M 354.3999938964844 946.4000244140625 L 351.5 940.5 L 344.8999938964844 939.5 L 349.70001220703125 934.9000244140625 L 348.6000061035156 928.2999877929688 L 354.3999938964844 931.4000244140625 L 360.20001220703125 928.2999877929688 L 359.1000061035156 934.9000244140625 L 363.79998779296875 939.5 L 357.29998779296875 940.5 Z"/>
	</g>
	<g>
		<path d="M 330.79998779296875 946.4000244140625 L 327.8999938964844 940.5 L 321.29998779296875 939.5 L 326 934.9000244140625 L 324.8999938964844 928.2999877929688 L 330.79998779296875 931.4000244140625 L 336.6000061035156 928.2999877929688 L 335.5 934.9000244140625 L 340.20001220703125 939.5 L 333.70001220703125 940.5 Z"/>
	</g>
	<g>
		<path d="M 307.20001220703125 946.4000244140625 L 304.20001220703125 940.5 L 297.70001220703125 939.5 L 302.3999938964844 934.9000244140625 L 301.29998779296875 928.2999877929688 L 307.20001220703125 931.4000244140625 L 313 928.2999877929688 L 311.8999938964844 934.9000244140625 L 316.6000061035156 939.5 L 310.1000061035156 940.5 Z"/>
	</g>
	<g>
		<path d="M 283.5 946.4000244140625 L 280.6000061035156 940.5 L 274.1000061035156 939.5 L 278.79998779296875 934.9000244140625 L 277.70001220703125 928.2999877929688 L 283.5 931.4000244140625 L 289.3999938964844 928.2999877929688 L 288.29998779296875 934.9000244140625 L 293 939.5 L 286.5 940.5 Z"/>
	</g>
	<g>
		<path d="M 259.8999938964844 946.4000244140625 L 257 940.5 L 250.5 939.5 L 255.1999969482422 934.9000244140625 L 254.10000610351562 928.2999877929688 L 259.8999938964844 931.4000244140625 L 265.79998779296875 928.2999877929688 L 264.6000061035156 934.9000244140625 L 269.3999938964844 939.5 L 262.79998779296875 940.5 Z"/>
	</g>
	<g>
		<path d="M 236.3000030517578 946.4000244140625 L 233.39999389648438 940.5 L 226.8000030517578 939.5 L 231.60000610351562 934.9000244140625 L 230.5 928.2999877929688 L 236.3000030517578 931.4000244140625 L 242.10000610351562 928.2999877929688 L 241 934.9000244140625 L 245.6999969482422 939.5 L 239.1999969482422 940.5 Z"/>
	</g>
	<g>
		<path d="M 212.6999969482422 946.4000244140625 L 209.8000030517578 940.5 L 203.1999969482422 939.5 L 207.89999389648438 934.9000244140625 L 206.8000030517578 928.2999877929688 L 212.6999969482422 931.4000244140625 L 218.5 928.2999877929688 L 217.39999389648438 934.9000244140625 L 222.10000610351562 939.5 L 215.60000610351562 940.5 Z"/>
	</g>
	<g>
		<path d="M 189.10000610351562 946.4000244140625 L 186.10000610351562 940.5 L 179.60000610351562 939.5 L 184.3000030517578 934.9000244140625 L 183.1999969482422 928.2999877929688 L 189.10000610351562 931.4000244140625 L 194.89999389648438 928.2999877929688 L 193.8000030517578 934.9000244140625 L 198.5 939.5 L 192 940.5 Z"/>
	</g>
	<g>
		<path d="M 165.39999389648438 946.4000244140625 L 162.5 940.5 L 156 939.5 L 160.6999969482422 934.9000244140625 L 159.60000610351562 928.2999877929688 L 165.39999389648438 931.4000244140625 L 171.3000030517578 928.2999877929688 L 170.1999969482422 934.9000244140625 L 174.89999389648438 939.5 L 168.39999389648438 940.5 Z"/>
	</g>
	<g>
		<path d="M 141.8000030517578 946.4000244140625 L 138.89999389648438 940.5 L 132.39999389648438 939.5 L 137.10000610351562 934.9000244140625 L 136 928.2999877929688 L 141.8000030517578 931.4000244140625 L 147.60000610351562 928.2999877929688 L 146.5 934.9000244140625 L 151.3000030517578 939.5 L 144.6999969482422 940.5 Z"/>
	</g>
	<g>
		<path d="M 118.19999694824219 946.4000244140625 L 115.30000305175781 940.5 L 108.69999694824219 939.5 L 113.5 934.9000244140625 L 112.4000015258789 928.2999877929688 L 118.19999694824219 931.4000244140625 L 124 928.2999877929688 L 122.9000015258789 934.9000244140625 L 127.5999984741211 939.5 L 121.0999984741211 940.5 Z"/>
	</g>
	<g>
		<path d="M 94.5999984741211 946.4000244140625 L 91.5999984741211 940.5 L 85.0999984741211 939.5 L 89.80000305175781 934.9000244140625 L 88.69999694824219 928.2999877929688 L 94.5999984741211 931.4000244140625 L 100.4000015258789 928.2999877929688 L 99.30000305175781 934.9000244140625 L 104 939.5 L 97.5 940.5 Z"/>
	</g>
	<g>
		<path d="M 70.9000015258789 946.4000244140625 L 68 940.5 L 61.5 939.5 L 66.19999694824219 934.9000244140625 L 65.0999984741211 928.2999877929688 L 70.9000015258789 931.4000244140625 L 76.80000305175781 928.2999877929688 L 75.69999694824219 934.9000244140625 L 80.4000015258789 939.5 L 73.9000015258789 940.5 Z"/>
	</g>
</g>
<g>
	<g>
		<path d="M 327.5 867.7999877929688 L 325.79998779296875 869.5 L 323.79998779296875 867.5999755859375 L 325.70001220703125 873.7000122070312 Z" class="st1" style="fill: rgb(118, 75, 30);"/>
	</g>
	<g>
		<path d="M 327.5 867.7999877929688 L 332.8999938964844 850.2000122070312 L 325.79998779296875 843 L 318.3999938964844 850.2999877929688 L 323.79998779296875 867.5999755859375 L 325.79998779296875 869.5 Z" class="st1" style="fill: rgb(118, 75, 30);"/>
	</g>
	<g>
		<path d="M 312.29998779296875 830.5 L 316.70001220703125 844.7000122070312 L 321.6000061035156 839.7999877929688 Z" class="st1" style="fill: rgb(118, 75, 30);"/>
	</g>
	<g>
		<path d="M 334.70001220703125 844.5 L 338.8999938964844 830.7999877929688 L 330 839.7999877929688 Z" class="st1" style="fill: rgb(118, 75, 30);"/>
	</g>
	<g>
		<path d="M 339 823 L 325.79998779296875 809.7999877929688 L 312.5 823 L 325.79998779296875 836.2999877929688 Z" class="st1" style="fill: rgb(118, 75, 30);"/>
	</g>
	<g>
		<path d="M 308.29998779296875 793.2999877929688 L 302.5 799.0999755859375 L 308.79998779296875 819.2999877929688 L 321.6000061035156 806.5999755859375 Z" class="st1" style="fill: rgb(118, 75, 30);"/>
	</g>
	<g>
		<path d="M 330 806.5999755859375 L 342.5 819.0999755859375 L 348.79998779296875 798.9000244140625 L 343.20001220703125 793.2999877929688 Z" class="st1" style="fill: rgb(118, 75, 30);"/>
	</g>
	<g>
		<path d="M 297.6000061035156 783.2999877929688 L 300.70001220703125 793.2000122070312 L 304.1000061035156 789.7999877929688 Z" class="st1" style="fill: rgb(118, 75, 30);"/>
	</g>
	<g>
		<path d="M 339 789.7999877929688 L 325.79998779296875 776.5 L 312.5 789.7999877929688 L 325.79998779296875 803.0999755859375 Z" class="st1" style="fill: rgb(118, 75, 30);"/>
	</g>
	<g>
		<path d="M 350.6000061035156 793 L 353.5 783.7000122070312 L 347.3999938964844 789.7999877929688 Z" class="st1" style="fill: rgb(118, 75, 30);"/>
	</g>
	<g>
		<path d="M 308.29998779296875 760 L 295 773.2999877929688 L 308.29998779296875 786.5999755859375 L 321.6000061035156 773.2999877929688 Z" class="st1" style="fill: rgb(118, 75, 30);"/>
	</g>
	<g>
		
			<path d="M 333.799988 763.900024 H 352.599987 V 782.700024 H 333.799988 V 763.900024 Z" transform="matrix(-0.7071 -0.7071 0.7071 -0.7071 39.118 1562.8118)" class="st1" style="fill: rgb(118, 75, 30);"/>
	</g>
	<g>
		<path d="M 290.8999938964844 743.2999877929688 L 286.6000061035156 747.5999755859375 L 292.79998779296875 767.7999877929688 L 304.1000061035156 756.5999755859375 Z" class="st1" style="fill: rgb(118, 75, 30);"/>
	</g>
	<g>
		<path d="M 325.79998779296875 769.7999877929688 L 339 756.5999755859375 L 325.79998779296875 743.2999877929688 L 312.5 756.5999755859375 Z" class="st1" style="fill: rgb(118, 75, 30);"/>
	</g>
	<g>
		<path d="M 347.3999938964844 756.5999755859375 L 358.5 767.5999755859375 L 364.79998779296875 747.4000244140625 L 360.70001220703125 743.2999877929688 Z" class="st1" style="fill: rgb(118, 75, 30);"/>
	</g>
	<g>
		<path d="M 283.1000061035156 736.5 L 284.79998779296875 741.9000244140625 L 286.70001220703125 740.0999755859375 Z" class="st1" style="fill: rgb(118, 75, 30);"/>
	</g>
	<g>
		<path d="M 321.6000061035156 740.0999755859375 L 308.29998779296875 726.7999877929688 L 295 740.0999755859375 L 308.29998779296875 753.2999877929688 Z" class="st1" style="fill: rgb(118, 75, 30);"/>
	</g>
	<g>
		
			<path d="M 333.799988 730.700012 H 352.599987 V 749.500011 H 333.799988 V 730.700012 Z" transform="matrix(-0.7071 -0.7071 0.7071 -0.7071 62.6244 1506.0596)" class="st1" style="fill: rgb(118, 75, 30);"/>
	</g>
	<g>
		<path d="M 366.5 741.7000122070312 L 368 736.9000244140625 L 364.8999938964844 740.0999755859375 Z" class="st1" style="fill: rgb(118, 75, 30);"/>
	</g>
	<g>
		<path d="M 304.1000061035156 723.2999877929688 L 290.8999938964844 710 L 278.70001220703125 722.2000122070312 L 279.70001220703125 725.4000244140625 L 290.8999938964844 736.5999755859375 Z" class="st1" style="fill: rgb(118, 75, 30);"/>
	</g>
	<g>
		<path d="M 325.79998779296875 710 L 312.5 723.2999877929688 L 325.79998779296875 736.5999755859375 L 339 723.2999877929688 Z" class="st1" style="fill: rgb(118, 75, 30);"/>
	</g>
	<g>
		<path d="M 347.3999938964844 723.2999877929688 L 360.70001220703125 736.5999755859375 L 371.3999938964844 725.7999877929688 L 372.6000061035156 722 L 360.70001220703125 710 Z" class="st1" style="fill: rgb(118, 75, 30);"/>
	</g>
	<g>
		<path d="M 273.3999938964844 693.5999755859375 L 270.70001220703125 696.2999877929688 L 276.8999938964844 716.5999755859375 L 286.70001220703125 706.7999877929688 Z" class="st1" style="fill: rgb(118, 75, 30);"/>
	</g>
	<g>
		<path d="M 321.6000061035156 706.7999877929688 L 308.29998779296875 693.5999755859375 L 295 706.7999877929688 L 308.29998779296875 720.0999755859375 Z" class="st1" style="fill: rgb(118, 75, 30);"/>
	</g>
	<g>
		
			<path d="M 333.799988 697.400024 H 352.599987 V 716.200024 H 333.799988 V 697.400024 Z" transform="matrix(-0.7071 -0.7071 0.7071 -0.7071 86.13 1449.3093)" class="st1" style="fill: rgb(118, 75, 30);"/>
	</g>
	<g>
		<path d="M 364.8999938964844 706.7999877929688 L 374.3999938964844 716.2999877929688 L 380.6000061035156 696.0999755859375 L 378.1000061035156 693.5999755859375 Z" class="st1" style="fill: rgb(118, 75, 30);"/>
	</g>
	<g>
		<path d="M 268.5 689.2999877929688 L 268.79998779296875 690.4000244140625 L 269.20001220703125 690.0999755859375 Z" class="st1" style="fill: rgb(118, 75, 30);"/>
	</g>
	<g>
		
			<path d="M 281.5 680.700012 H 300.299999 V 699.500011 H 281.5 V 680.700012 Z" transform="matrix(0.707 -0.7072 0.7072 0.707 -402.79 407.8613)" class="st1" style="fill: rgb(118, 75, 30);"/>
	</g>
	<g>
		<path d="M 325.79998779296875 703.2999877929688 L 339 690.0999755859375 L 325.79998779296875 676.7999877929688 L 312.5 690.0999755859375 Z" class="st1" style="fill: rgb(118, 75, 30);"/>
	</g>
	<g>
		
			<path d="M 351.299988 680.700012 H 370.099987 V 699.500011 H 351.299988 V 680.700012 Z" transform="matrix(-0.707 0.7072 -0.7072 -0.707 1103.6661 922.9027)" class="st1" style="fill: rgb(118, 75, 30);"/>
	</g>
	<g>
		<path d="M 382.3999938964844 690.2000122070312 L 382.6000061035156 689.7999877929688 L 382.29998779296875 690.0999755859375 Z" class="st1" style="fill: rgb(118, 75, 30);"/>
	</g>
	<g>
		<path d="M 286.70001220703125 673.5999755859375 L 273.3999938964844 660.2999877929688 L 262.79998779296875 670.9000244140625 L 265.20001220703125 678.5999755859375 L 273.3999938964844 686.7999877929688 Z" class="st1" style="fill: rgb(118, 75, 30);"/>
	</g>
	<g>
		<path d="M 321.6000061035156 673.5999755859375 L 308.29998779296875 660.2999877929688 L 295 673.5999755859375 L 308.29998779296875 686.7999877929688 Z" class="st1" style="fill: rgb(118, 75, 30);"/>
	</g>
	<g>
		
			<path d="M 333.799988 664.200012 H 352.599987 V 683.000011 H 333.799988 V 664.200012 Z" transform="matrix(0.7071 0.7071 -0.7071 0.7071 576.8351 -45.3957)" class="st1" style="fill: rgb(118, 75, 30);"/>
	</g>
	<g>
		<path d="M 364.8999938964844 673.5999755859375 L 378.1000061035156 686.7999877929688 L 385.8999938964844 679 L 388.5 670.7000122070312 L 378.1000061035156 660.2999877929688 Z" class="st1" style="fill: rgb(118, 75, 30);"/>
	</g>
	<g>
		<path d="M 258.6000061035156 657.4000244140625 L 261 665.0999755859375 L 268.79998779296875 657.2999877929688 Z" class="st1" style="fill: rgb(118, 75, 30);"/>
	</g>
	<g>
		<path d="M 304 657 L 278 657.2000122070312 L 290.8999938964844 670.0999755859375 Z" class="st1" style="fill: rgb(118, 75, 30);"/>
	</g>
	<g>
		<path d="M 339 656.7999877929688 L 338.8999938964844 656.7000122070312 L 312.6000061035156 656.9000244140625 L 325.79998779296875 670.0999755859375 Z" class="st1" style="fill: rgb(118, 75, 30);"/>
	</g>
	<g>
		<path d="M 360.70001220703125 670.0999755859375 L 373.8999938964844 656.7999877929688 L 373.5 656.4000244140625 L 347.6000061035156 656.5999755859375 L 347.3999938964844 656.7999877929688 Z" class="st1" style="fill: rgb(118, 75, 30);"/>
	</g>
	<g>
		<path d="M 390.29998779296875 664.7999877929688 L 393 656.2000122070312 L 382.8999938964844 656.2999877929688 L 382.29998779296875 656.7999877929688 Z" class="st1" style="fill: rgb(118, 75, 30);"/>
	</g>
</g>
<path class="st8" d="M399.5,642.3c2.4-7.6,3.7-15.6,3.7-24c0-43.9-35.6-79.4-79.4-79.4c-43.9,0-79.4,35.6-79.4,79.4&#10;&#9;c0,8.5,1.4,16.7,3.8,24.4c-4.5,2.4-7.5,7.1-7.5,12.5c0,7.8,6.3,14.2,14.2,14.2c1.1,0,2.1-0.1,3.1-0.4c15.3-1.7,83.5-8.5,130.8-0.5&#10;&#9;c1.5,0.6,3.2,0.9,4.9,0.9c7.8,0,14.2-6.3,14.2-14.2C407.9,649.5,404.5,644.5,399.5,642.3z" style="fill: rgb(255, 193, 14);"/>
<g>
	<g>
		<path class="st7" d="M376.9,579c-3.8-5.8-8.6-10-14.2-13.5c-0.5,2.8-1.5,5.4-3.1,7.6c9.4,6.4,16.2,16.3,15.9,28.1&#10;&#9;&#9;&#9;c-0.1,5.2,8,6.2,8.1,1C383.8,593.3,381.8,586.5,376.9,579z" style="fill: rgb(237, 221, 204);"/>
	</g>
</g>
<g>
	<path class="st2" d="M305.2,580.9c5.5-2.4,11.8-3.8,19-3.8c7,0,13.1,1.3,18.4,3.6c8.5-6,14.1-15.8,14.1-27c0-18.2-14.8-33-33-33&#10;&#9;&#9;s-33,14.8-33,33C290.8,565,296.5,574.9,305.2,580.9z" style="fill: rgb(213, 83, 39);"/>
</g>
</svg>